solid OpenSCAD_Model
  facet normal 0 -0.8320502943378437 -0.5547001962252291
    outer loop
      vertex -10 10 0
      vertex 10 10 0
      vertex 0 0 15
    endloop
  endfacet
  facet normal 0.8320502943378437 0 -0.5547001962252291
    outer loop
      vertex -10 -10 0
      vertex -10 10 0
      vertex 0 0 15
    endloop
  endfacet
  facet normal 0 0.8320502943378437 -0.5547001962252291
    outer loop
      vertex 10 -10 0
      vertex -10 -10 0
      vertex 0 0 15
    endloop
  endfacet
  facet normal -0.8320502943378437 0 -0.5547001962252291
    outer loop
      vertex 10 10 0
      vertex 10 -10 0
      vertex 0 0 15
    endloop
  endfacet
  facet normal 0 -0.8320502943378437 0.5547001962252291
    outer loop
      vertex 10 10 0
      vertex -10 10 0
      vertex 0 0 -15
    endloop
  endfacet
  facet normal 0.8320502943378437 0 0.5547001962252291
    outer loop
      vertex -10 10 0
      vertex -10 -10 0
      vertex 0 0 -15
    endloop
  endfacet
  facet normal 0 0.8320502943378437 0.5547001962252291
    outer loop
      vertex -10 -10 0
      vertex 10 -10 0
      vertex 0 0 -15
    endloop
  endfacet
  facet normal -0.8320502943378437 0 0.5547001962252291
    outer loop
      vertex 10 -10 0
      vertex 10 10 0
      vertex 0 0 -15
    endloop
  endfacet
endsolid OpenSCAD_Model
