solid OpenSCAD_Model
  facet normal 0.9987954562051724 0.049067674327417134 0
    outer loop
      vertex 10 0 5
      vertex 9.95184726672197 0.980171403295606 -5
      vertex 9.95184726672197 0.980171403295606 5
    endloop
  endfacet
  facet normal 0.9987954562051724 0.049067674327417134 0
    outer loop
      vertex 9.95184726672197 0.980171403295606 -5
      vertex 10 0 5
      vertex 10 0 -5
    endloop
  endfacet
  facet normal 0.9891765099647808 0.14673047445536283 0
    outer loop
      vertex 9.95184726672197 0.980171403295606 5
      vertex 9.807852804032304 1.9509032201612824 -5
      vertex 9.807852804032304 1.9509032201612824 5
    endloop
  endfacet
  facet normal 0.9891765099647808 0.14673047445536283 0
    outer loop
      vertex 9.807852804032304 1.9509032201612824 -5
      vertex 9.95184726672197 0.980171403295606 5
      vertex 9.95184726672197 0.980171403295606 -5
    endloop
  endfacet
  facet normal 0.9700312531945439 0.2429801799032646 0
    outer loop
      vertex 9.807852804032304 1.9509032201612824 5
      vertex 9.569403357322088 2.902846772544623 -5
      vertex 9.569403357322088 2.902846772544623 5
    endloop
  endfacet
  facet normal 0.9700312531945439 0.2429801799032646 0
    outer loop
      vertex 9.569403357322088 2.902846772544623 -5
      vertex 9.807852804032304 1.9509032201612824 5
      vertex 9.807852804032304 1.9509032201612824 -5
    endloop
  endfacet
  facet normal 0.9415440651830213 0.33688985339221883 0
    outer loop
      vertex 9.569403357322088 2.902846772544623 5
      vertex 9.238795325112868 3.826834323650898 -5
      vertex 9.238795325112868 3.826834323650898 5
    endloop
  endfacet
  facet normal 0.9415440651830213 0.33688985339221883 0
    outer loop
      vertex 9.238795325112868 3.826834323650898 -5
      vertex 9.569403357322088 2.902846772544623 5
      vertex 9.569403357322088 2.902846772544623 -5
    endloop
  endfacet
  facet normal 0.9039892931234436 0.4275550934302817 0
    outer loop
      vertex 9.238795325112868 3.826834323650898 5
      vertex 8.819212643483551 4.7139673682599765 -5
      vertex 8.819212643483551 4.7139673682599765 5
    endloop
  endfacet
  facet normal 0.9039892931234436 0.4275550934302817 0
    outer loop
      vertex 8.819212643483551 4.7139673682599765 -5
      vertex 9.238795325112868 3.826834323650898 5
      vertex 9.238795325112868 3.826834323650898 -5
    endloop
  endfacet
  facet normal 0.8577286100002717 0.5141027441932224 0
    outer loop
      vertex 8.819212643483551 4.7139673682599765 5
      vertex 8.314696123025453 5.555702330196022 -5
      vertex 8.314696123025453 5.555702330196022 5
    endloop
  endfacet
  facet normal 0.8577286100002717 0.5141027441932224 0
    outer loop
      vertex 8.314696123025453 5.555702330196022 -5
      vertex 8.819212643483551 4.7139673682599765 5
      vertex 8.819212643483551 4.7139673682599765 -5
    endloop
  endfacet
  facet normal 0.803207531480645 0.595699304492433 0
    outer loop
      vertex 8.314696123025453 5.555702330196022 5
      vertex 7.73010453362737 6.343932841636455 -5
      vertex 7.73010453362737 6.343932841636455 5
    endloop
  endfacet
  facet normal 0.803207531480645 0.595699304492433 0
    outer loop
      vertex 7.73010453362737 6.343932841636455 -5
      vertex 8.314696123025453 5.555702330196022 5
      vertex 8.314696123025453 5.555702330196022 -5
    endloop
  endfacet
  facet normal 0.7409511253549591 0.6715589548470183 0
    outer loop
      vertex 7.73010453362737 6.343932841636455 5
      vertex 7.0710678118654755 7.0710678118654755 -5
      vertex 7.0710678118654755 7.0710678118654755 5
    endloop
  endfacet
  facet normal 0.7409511253549591 0.6715589548470183 0
    outer loop
      vertex 7.0710678118654755 7.0710678118654755 -5
      vertex 7.73010453362737 6.343932841636455 5
      vertex 7.73010453362737 6.343932841636455 -5
    endloop
  endfacet
  facet normal 0.6715589548470183 0.7409511253549591 0
    outer loop
      vertex 7.0710678118654755 7.0710678118654755 -5
      vertex 6.343932841636455 7.73010453362737 5
      vertex 7.0710678118654755 7.0710678118654755 5
    endloop
  endfacet
  facet normal 0.6715589548470183 0.7409511253549591 0
    outer loop
      vertex 6.343932841636455 7.73010453362737 5
      vertex 7.0710678118654755 7.0710678118654755 -5
      vertex 6.343932841636455 7.73010453362737 -5
    endloop
  endfacet
  facet normal 0.595699304492433 0.803207531480645 0
    outer loop
      vertex 6.343932841636455 7.73010453362737 -5
      vertex 5.555702330196022 8.314696123025453 5
      vertex 6.343932841636455 7.73010453362737 5
    endloop
  endfacet
  facet normal 0.595699304492433 0.803207531480645 0
    outer loop
      vertex 5.555702330196022 8.314696123025453 5
      vertex 6.343932841636455 7.73010453362737 -5
      vertex 5.555702330196022 8.314696123025453 -5
    endloop
  endfacet
  facet normal 0.5141027441932224 0.8577286100002717 0
    outer loop
      vertex 5.555702330196022 8.314696123025453 -5
      vertex 4.7139673682599765 8.819212643483551 5
      vertex 5.555702330196022 8.314696123025453 5
    endloop
  endfacet
  facet normal 0.5141027441932224 0.8577286100002717 0
    outer loop
      vertex 4.7139673682599765 8.819212643483551 5
      vertex 5.555702330196022 8.314696123025453 -5
      vertex 4.7139673682599765 8.819212643483551 -5
    endloop
  endfacet
  facet normal 0.4275550934302817 0.9039892931234436 0
    outer loop
      vertex 4.7139673682599765 8.819212643483551 -5
      vertex 3.826834323650898 9.238795325112868 5
      vertex 4.7139673682599765 8.819212643483551 5
    endloop
  endfacet
  facet normal 0.4275550934302817 0.9039892931234436 0
    outer loop
      vertex 3.826834323650898 9.238795325112868 5
      vertex 4.7139673682599765 8.819212643483551 -5
      vertex 3.826834323650898 9.238795325112868 -5
    endloop
  endfacet
  facet normal 0.33688985339221883 0.9415440651830213 0
    outer loop
      vertex 3.826834323650898 9.238795325112868 -5
      vertex 2.902846772544623 9.569403357322088 5
      vertex 3.826834323650898 9.238795325112868 5
    endloop
  endfacet
  facet normal 0.33688985339221883 0.9415440651830213 0
    outer loop
      vertex 2.902846772544623 9.569403357322088 5
      vertex 3.826834323650898 9.238795325112868 -5
      vertex 2.902846772544623 9.569403357322088 -5
    endloop
  endfacet
  facet normal 0.2429801799032646 0.9700312531945439 0
    outer loop
      vertex 2.902846772544623 9.569403357322088 -5
      vertex 1.9509032201612824 9.807852804032304 5
      vertex 2.902846772544623 9.569403357322088 5
    endloop
  endfacet
  facet normal 0.2429801799032646 0.9700312531945439 0
    outer loop
      vertex 1.9509032201612824 9.807852804032304 5
      vertex 2.902846772544623 9.569403357322088 -5
      vertex 1.9509032201612824 9.807852804032304 -5
    endloop
  endfacet
  facet normal 0.14673047445536283 0.9891765099647808 0
    outer loop
      vertex 1.9509032201612824 9.807852804032304 -5
      vertex 0.980171403295606 9.95184726672197 5
      vertex 1.9509032201612824 9.807852804032304 5
    endloop
  endfacet
  facet normal 0.14673047445536283 0.9891765099647808 0
    outer loop
      vertex 0.980171403295606 9.95184726672197 5
      vertex 1.9509032201612824 9.807852804032304 -5
      vertex 0.980171403295606 9.95184726672197 -5
    endloop
  endfacet
  facet normal 0.049067674327417134 0.9987954562051724 0
    outer loop
      vertex 0.980171403295606 9.95184726672197 -5
      vertex 0 10 5
      vertex 0.980171403295606 9.95184726672197 5
    endloop
  endfacet
  facet normal 0.049067674327417134 0.9987954562051724 0
    outer loop
      vertex 0 10 5
      vertex 0.980171403295606 9.95184726672197 -5
      vertex 0 10 -5
    endloop
  endfacet
  facet normal -0.049067674327417134 0.9987954562051724 0
    outer loop
      vertex 0 10 -5
      vertex -0.980171403295606 9.95184726672197 5
      vertex 0 10 5
    endloop
  endfacet
  facet normal -0.049067674327417134 0.9987954562051724 0
    outer loop
      vertex -0.980171403295606 9.95184726672197 5
      vertex 0 10 -5
      vertex -0.980171403295606 9.95184726672197 -5
    endloop
  endfacet
  facet normal -0.14673047445536283 0.9891765099647808 0
    outer loop
      vertex -0.980171403295606 9.95184726672197 -5
      vertex -1.9509032201612824 9.807852804032304 5
      vertex -0.980171403295606 9.95184726672197 5
    endloop
  endfacet
  facet normal -0.14673047445536283 0.9891765099647808 0
    outer loop
      vertex -1.9509032201612824 9.807852804032304 5
      vertex -0.980171403295606 9.95184726672197 -5
      vertex -1.9509032201612824 9.807852804032304 -5
    endloop
  endfacet
  facet normal -0.2429801799032646 0.9700312531945439 0
    outer loop
      vertex -1.9509032201612824 9.807852804032304 -5
      vertex -2.902846772544623 9.569403357322088 5
      vertex -1.9509032201612824 9.807852804032304 5
    endloop
  endfacet
  facet normal -0.2429801799032646 0.9700312531945439 0
    outer loop
      vertex -2.902846772544623 9.569403357322088 5
      vertex -1.9509032201612824 9.807852804032304 -5
      vertex -2.902846772544623 9.569403357322088 -5
    endloop
  endfacet
  facet normal -0.33688985339221883 0.9415440651830213 0
    outer loop
      vertex -2.902846772544623 9.569403357322088 -5
      vertex -3.826834323650898 9.238795325112868 5
      vertex -2.902846772544623 9.569403357322088 5
    endloop
  endfacet
  facet normal -0.33688985339221883 0.9415440651830213 0
    outer loop
      vertex -3.826834323650898 9.238795325112868 5
      vertex -2.902846772544623 9.569403357322088 -5
      vertex -3.826834323650898 9.238795325112868 -5
    endloop
  endfacet
  facet normal -0.4275550934302817 0.9039892931234436 0
    outer loop
      vertex -3.826834323650898 9.238795325112868 -5
      vertex -4.7139673682599765 8.819212643483551 5
      vertex -3.826834323650898 9.238795325112868 5
    endloop
  endfacet
  facet normal -0.4275550934302817 0.9039892931234436 0
    outer loop
      vertex -4.7139673682599765 8.819212643483551 5
      vertex -3.826834323650898 9.238795325112868 -5
      vertex -4.7139673682599765 8.819212643483551 -5
    endloop
  endfacet
  facet normal -0.5141027441932224 0.8577286100002717 0
    outer loop
      vertex -4.7139673682599765 8.819212643483551 -5
      vertex -5.555702330196022 8.314696123025453 5
      vertex -4.7139673682599765 8.819212643483551 5
    endloop
  endfacet
  facet normal -0.5141027441932224 0.8577286100002717 0
    outer loop
      vertex -5.555702330196022 8.314696123025453 5
      vertex -4.7139673682599765 8.819212643483551 -5
      vertex -5.555702330196022 8.314696123025453 -5
    endloop
  endfacet
  facet normal -0.595699304492433 0.803207531480645 0
    outer loop
      vertex -5.555702330196022 8.314696123025453 -5
      vertex -6.343932841636455 7.73010453362737 5
      vertex -5.555702330196022 8.314696123025453 5
    endloop
  endfacet
  facet normal -0.595699304492433 0.803207531480645 0
    outer loop
      vertex -6.343932841636455 7.73010453362737 5
      vertex -5.555702330196022 8.314696123025453 -5
      vertex -6.343932841636455 7.73010453362737 -5
    endloop
  endfacet
  facet normal -0.6715589548470183 0.7409511253549591 0
    outer loop
      vertex -6.343932841636455 7.73010453362737 -5
      vertex -7.0710678118654755 7.0710678118654755 5
      vertex -6.343932841636455 7.73010453362737 5
    endloop
  endfacet
  facet normal -0.6715589548470183 0.7409511253549591 0
    outer loop
      vertex -7.0710678118654755 7.0710678118654755 5
      vertex -6.343932841636455 7.73010453362737 -5
      vertex -7.0710678118654755 7.0710678118654755 -5
    endloop
  endfacet
  facet normal -0.7409511253549591 0.6715589548470183 0
    outer loop
      vertex -7.73010453362737 6.343932841636455 -5
      vertex -7.0710678118654755 7.0710678118654755 5
      vertex -7.0710678118654755 7.0710678118654755 -5
    endloop
  endfacet
  facet normal -0.7409511253549591 0.6715589548470183 0
    outer loop
      vertex -7.0710678118654755 7.0710678118654755 5
      vertex -7.73010453362737 6.343932841636455 -5
      vertex -7.73010453362737 6.343932841636455 5
    endloop
  endfacet
  facet normal -0.803207531480645 0.595699304492433 0
    outer loop
      vertex -8.314696123025453 5.555702330196022 -5
      vertex -7.73010453362737 6.343932841636455 5
      vertex -7.73010453362737 6.343932841636455 -5
    endloop
  endfacet
  facet normal -0.803207531480645 0.595699304492433 0
    outer loop
      vertex -7.73010453362737 6.343932841636455 5
      vertex -8.314696123025453 5.555702330196022 -5
      vertex -8.314696123025453 5.555702330196022 5
    endloop
  endfacet
  facet normal -0.8577286100002717 0.5141027441932224 0
    outer loop
      vertex -8.819212643483551 4.7139673682599765 -5
      vertex -8.314696123025453 5.555702330196022 5
      vertex -8.314696123025453 5.555702330196022 -5
    endloop
  endfacet
  facet normal -0.8577286100002717 0.5141027441932224 0
    outer loop
      vertex -8.314696123025453 5.555702330196022 5
      vertex -8.819212643483551 4.7139673682599765 -5
      vertex -8.819212643483551 4.7139673682599765 5
    endloop
  endfacet
  facet normal -0.9039892931234436 0.4275550934302817 0
    outer loop
      vertex -9.238795325112868 3.826834323650898 -5
      vertex -8.819212643483551 4.7139673682599765 5
      vertex -8.819212643483551 4.7139673682599765 -5
    endloop
  endfacet
  facet normal -0.9039892931234436 0.4275550934302817 0
    outer loop
      vertex -8.819212643483551 4.7139673682599765 5
      vertex -9.238795325112868 3.826834323650898 -5
      vertex -9.238795325112868 3.826834323650898 5
    endloop
  endfacet
  facet normal -0.9415440651830213 0.33688985339221883 0
    outer loop
      vertex -9.569403357322088 2.902846772544623 -5
      vertex -9.238795325112868 3.826834323650898 5
      vertex -9.238795325112868 3.826834323650898 -5
    endloop
  endfacet
  facet normal -0.9415440651830213 0.33688985339221883 0
    outer loop
      vertex -9.238795325112868 3.826834323650898 5
      vertex -9.569403357322088 2.902846772544623 -5
      vertex -9.569403357322088 2.902846772544623 5
    endloop
  endfacet
  facet normal -0.9700312531945439 0.2429801799032646 0
    outer loop
      vertex -9.807852804032304 1.9509032201612824 -5
      vertex -9.569403357322088 2.902846772544623 5
      vertex -9.569403357322088 2.902846772544623 -5
    endloop
  endfacet
  facet normal -0.9700312531945439 0.2429801799032646 0
    outer loop
      vertex -9.569403357322088 2.902846772544623 5
      vertex -9.807852804032304 1.9509032201612824 -5
      vertex -9.807852804032304 1.9509032201612824 5
    endloop
  endfacet
  facet normal -0.9891765099647808 0.14673047445536283 0
    outer loop
      vertex -9.95184726672197 0.980171403295606 -5
      vertex -9.807852804032304 1.9509032201612824 5
      vertex -9.807852804032304 1.9509032201612824 -5
    endloop
  endfacet
  facet normal -0.9891765099647808 0.14673047445536283 0
    outer loop
      vertex -9.807852804032304 1.9509032201612824 5
      vertex -9.95184726672197 0.980171403295606 -5
      vertex -9.95184726672197 0.980171403295606 5
    endloop
  endfacet
  facet normal -0.9987954562051724 0.049067674327417134 0
    outer loop
      vertex -10 0 -5
      vertex -9.95184726672197 0.980171403295606 5
      vertex -9.95184726672197 0.980171403295606 -5
    endloop
  endfacet
  facet normal -0.9987954562051724 0.049067674327417134 0
    outer loop
      vertex -9.95184726672197 0.980171403295606 5
      vertex -10 0 -5
      vertex -10 0 5
    endloop
  endfacet
  facet normal -0.9987954562051724 -0.049067674327417134 0
    outer loop
      vertex -9.95184726672197 -0.980171403295606 -5
      vertex -10 0 5
      vertex -10 0 -5
    endloop
  endfacet
  facet normal -0.9987954562051724 -0.049067674327417134 0
    outer loop
      vertex -10 0 5
      vertex -9.95184726672197 -0.980171403295606 -5
      vertex -9.95184726672197 -0.980171403295606 5
    endloop
  endfacet
  facet normal -0.9891765099647808 -0.14673047445536283 0
    outer loop
      vertex -9.807852804032304 -1.9509032201612824 -5
      vertex -9.95184726672197 -0.980171403295606 5
      vertex -9.95184726672197 -0.980171403295606 -5
    endloop
  endfacet
  facet normal -0.9891765099647808 -0.14673047445536283 0
    outer loop
      vertex -9.95184726672197 -0.980171403295606 5
      vertex -9.807852804032304 -1.9509032201612824 -5
      vertex -9.807852804032304 -1.9509032201612824 5
    endloop
  endfacet
  facet normal -0.9700312531945439 -0.2429801799032646 0
    outer loop
      vertex -9.569403357322088 -2.902846772544623 -5
      vertex -9.807852804032304 -1.9509032201612824 5
      vertex -9.807852804032304 -1.9509032201612824 -5
    endloop
  endfacet
  facet normal -0.9700312531945439 -0.2429801799032646 0
    outer loop
      vertex -9.807852804032304 -1.9509032201612824 5
      vertex -9.569403357322088 -2.902846772544623 -5
      vertex -9.569403357322088 -2.902846772544623 5
    endloop
  endfacet
  facet normal -0.9415440651830213 -0.33688985339221883 0
    outer loop
      vertex -9.238795325112868 -3.826834323650898 -5
      vertex -9.569403357322088 -2.902846772544623 5
      vertex -9.569403357322088 -2.902846772544623 -5
    endloop
  endfacet
  facet normal -0.9415440651830213 -0.33688985339221883 0
    outer loop
      vertex -9.569403357322088 -2.902846772544623 5
      vertex -9.238795325112868 -3.826834323650898 -5
      vertex -9.238795325112868 -3.826834323650898 5
    endloop
  endfacet
  facet normal -0.9039892931234436 -0.4275550934302817 0
    outer loop
      vertex -8.819212643483551 -4.7139673682599765 -5
      vertex -9.238795325112868 -3.826834323650898 5
      vertex -9.238795325112868 -3.826834323650898 -5
    endloop
  endfacet
  facet normal -0.9039892931234436 -0.4275550934302817 0
    outer loop
      vertex -9.238795325112868 -3.826834323650898 5
      vertex -8.819212643483551 -4.7139673682599765 -5
      vertex -8.819212643483551 -4.7139673682599765 5
    endloop
  endfacet
  facet normal -0.8577286100002717 -0.5141027441932224 0
    outer loop
      vertex -8.314696123025453 -5.555702330196022 -5
      vertex -8.819212643483551 -4.7139673682599765 5
      vertex -8.819212643483551 -4.7139673682599765 -5
    endloop
  endfacet
  facet normal -0.8577286100002717 -0.5141027441932224 0
    outer loop
      vertex -8.819212643483551 -4.7139673682599765 5
      vertex -8.314696123025453 -5.555702330196022 -5
      vertex -8.314696123025453 -5.555702330196022 5
    endloop
  endfacet
  facet normal -0.803207531480645 -0.595699304492433 0
    outer loop
      vertex -7.73010453362737 -6.343932841636455 -5
      vertex -8.314696123025453 -5.555702330196022 5
      vertex -8.314696123025453 -5.555702330196022 -5
    endloop
  endfacet
  facet normal -0.803207531480645 -0.595699304492433 0
    outer loop
      vertex -8.314696123025453 -5.555702330196022 5
      vertex -7.73010453362737 -6.343932841636455 -5
      vertex -7.73010453362737 -6.343932841636455 5
    endloop
  endfacet
  facet normal -0.7409511253549591 -0.6715589548470183 0
    outer loop
      vertex -7.0710678118654755 -7.0710678118654755 -5
      vertex -7.73010453362737 -6.343932841636455 5
      vertex -7.73010453362737 -6.343932841636455 -5
    endloop
  endfacet
  facet normal -0.7409511253549591 -0.6715589548470183 0
    outer loop
      vertex -7.73010453362737 -6.343932841636455 5
      vertex -7.0710678118654755 -7.0710678118654755 -5
      vertex -7.0710678118654755 -7.0710678118654755 5
    endloop
  endfacet
  facet normal -0.6715589548470183 -0.7409511253549591 0
    outer loop
      vertex -7.0710678118654755 -7.0710678118654755 -5
      vertex -6.343932841636455 -7.73010453362737 5
      vertex -7.0710678118654755 -7.0710678118654755 5
    endloop
  endfacet
  facet normal -0.6715589548470183 -0.7409511253549591 0
    outer loop
      vertex -6.343932841636455 -7.73010453362737 5
      vertex -7.0710678118654755 -7.0710678118654755 -5
      vertex -6.343932841636455 -7.73010453362737 -5
    endloop
  endfacet
  facet normal -0.595699304492433 -0.803207531480645 0
    outer loop
      vertex -6.343932841636455 -7.73010453362737 -5
      vertex -5.555702330196022 -8.314696123025453 5
      vertex -6.343932841636455 -7.73010453362737 5
    endloop
  endfacet
  facet normal -0.595699304492433 -0.803207531480645 0
    outer loop
      vertex -5.555702330196022 -8.314696123025453 5
      vertex -6.343932841636455 -7.73010453362737 -5
      vertex -5.555702330196022 -8.314696123025453 -5
    endloop
  endfacet
  facet normal -0.5141027441932224 -0.8577286100002717 0
    outer loop
      vertex -5.555702330196022 -8.314696123025453 -5
      vertex -4.7139673682599765 -8.819212643483551 5
      vertex -5.555702330196022 -8.314696123025453 5
    endloop
  endfacet
  facet normal -0.5141027441932224 -0.8577286100002717 0
    outer loop
      vertex -4.7139673682599765 -8.819212643483551 5
      vertex -5.555702330196022 -8.314696123025453 -5
      vertex -4.7139673682599765 -8.819212643483551 -5
    endloop
  endfacet
  facet normal -0.4275550934302817 -0.9039892931234436 0
    outer loop
      vertex -4.7139673682599765 -8.819212643483551 -5
      vertex -3.826834323650898 -9.238795325112868 5
      vertex -4.7139673682599765 -8.819212643483551 5
    endloop
  endfacet
  facet normal -0.4275550934302817 -0.9039892931234436 0
    outer loop
      vertex -3.826834323650898 -9.238795325112868 5
      vertex -4.7139673682599765 -8.819212643483551 -5
      vertex -3.826834323650898 -9.238795325112868 -5
    endloop
  endfacet
  facet normal -0.33688985339221883 -0.9415440651830213 0
    outer loop
      vertex -3.826834323650898 -9.238795325112868 -5
      vertex -2.902846772544623 -9.569403357322088 5
      vertex -3.826834323650898 -9.238795325112868 5
    endloop
  endfacet
  facet normal -0.33688985339221883 -0.9415440651830213 0
    outer loop
      vertex -2.902846772544623 -9.569403357322088 5
      vertex -3.826834323650898 -9.238795325112868 -5
      vertex -2.902846772544623 -9.569403357322088 -5
    endloop
  endfacet
  facet normal -0.2429801799032646 -0.9700312531945439 0
    outer loop
      vertex -2.902846772544623 -9.569403357322088 -5
      vertex -1.9509032201612824 -9.807852804032304 5
      vertex -2.902846772544623 -9.569403357322088 5
    endloop
  endfacet
  facet normal -0.2429801799032646 -0.9700312531945439 0
    outer loop
      vertex -1.9509032201612824 -9.807852804032304 5
      vertex -2.902846772544623 -9.569403357322088 -5
      vertex -1.9509032201612824 -9.807852804032304 -5
    endloop
  endfacet
  facet normal -0.14673047445536283 -0.9891765099647808 0
    outer loop
      vertex -1.9509032201612824 -9.807852804032304 -5
      vertex -0.980171403295606 -9.95184726672197 5
      vertex -1.9509032201612824 -9.807852804032304 5
    endloop
  endfacet
  facet normal -0.14673047445536283 -0.9891765099647808 0
    outer loop
      vertex -0.980171403295606 -9.95184726672197 5
      vertex -1.9509032201612824 -9.807852804032304 -5
      vertex -0.980171403295606 -9.95184726672197 -5
    endloop
  endfacet
  facet normal -0.049067674327417134 -0.9987954562051724 0
    outer loop
      vertex -0.980171403295606 -9.95184726672197 -5
      vertex 0 -10 5
      vertex -0.980171403295606 -9.95184726672197 5
    endloop
  endfacet
  facet normal -0.049067674327417134 -0.9987954562051724 0
    outer loop
      vertex 0 -10 5
      vertex -0.980171403295606 -9.95184726672197 -5
      vertex 0 -10 -5
    endloop
  endfacet
  facet normal 0.049067674327417134 -0.9987954562051724 0
    outer loop
      vertex 0 -10 -5
      vertex 0.980171403295606 -9.95184726672197 5
      vertex 0 -10 5
    endloop
  endfacet
  facet normal 0.049067674327417134 -0.9987954562051724 0
    outer loop
      vertex 0.980171403295606 -9.95184726672197 5
      vertex 0 -10 -5
      vertex 0.980171403295606 -9.95184726672197 -5
    endloop
  endfacet
  facet normal 0.14673047445536283 -0.9891765099647808 0
    outer loop
      vertex 0.980171403295606 -9.95184726672197 -5
      vertex 1.9509032201612824 -9.807852804032304 5
      vertex 0.980171403295606 -9.95184726672197 5
    endloop
  endfacet
  facet normal 0.14673047445536283 -0.9891765099647808 0
    outer loop
      vertex 1.9509032201612824 -9.807852804032304 5
      vertex 0.980171403295606 -9.95184726672197 -5
      vertex 1.9509032201612824 -9.807852804032304 -5
    endloop
  endfacet
  facet normal 0.2429801799032646 -0.9700312531945439 0
    outer loop
      vertex 1.9509032201612824 -9.807852804032304 -5
      vertex 2.902846772544623 -9.569403357322088 5
      vertex 1.9509032201612824 -9.807852804032304 5
    endloop
  endfacet
  facet normal 0.2429801799032646 -0.9700312531945439 0
    outer loop
      vertex 2.902846772544623 -9.569403357322088 5
      vertex 1.9509032201612824 -9.807852804032304 -5
      vertex 2.902846772544623 -9.569403357322088 -5
    endloop
  endfacet
  facet normal 0.33688985339221883 -0.9415440651830213 0
    outer loop
      vertex 2.902846772544623 -9.569403357322088 -5
      vertex 3.826834323650898 -9.238795325112868 5
      vertex 2.902846772544623 -9.569403357322088 5
    endloop
  endfacet
  facet normal 0.33688985339221883 -0.9415440651830213 0
    outer loop
      vertex 3.826834323650898 -9.238795325112868 5
      vertex 2.902846772544623 -9.569403357322088 -5
      vertex 3.826834323650898 -9.238795325112868 -5
    endloop
  endfacet
  facet normal 0.4275550934302817 -0.9039892931234436 0
    outer loop
      vertex 3.826834323650898 -9.238795325112868 -5
      vertex 4.7139673682599765 -8.819212643483551 5
      vertex 3.826834323650898 -9.238795325112868 5
    endloop
  endfacet
  facet normal 0.4275550934302817 -0.9039892931234436 0
    outer loop
      vertex 4.7139673682599765 -8.819212643483551 5
      vertex 3.826834323650898 -9.238795325112868 -5
      vertex 4.7139673682599765 -8.819212643483551 -5
    endloop
  endfacet
  facet normal 0.5141027441932224 -0.8577286100002717 0
    outer loop
      vertex 4.7139673682599765 -8.819212643483551 -5
      vertex 5.555702330196022 -8.314696123025453 5
      vertex 4.7139673682599765 -8.819212643483551 5
    endloop
  endfacet
  facet normal 0.5141027441932224 -0.8577286100002717 0
    outer loop
      vertex 5.555702330196022 -8.314696123025453 5
      vertex 4.7139673682599765 -8.819212643483551 -5
      vertex 5.555702330196022 -8.314696123025453 -5
    endloop
  endfacet
  facet normal 0.595699304492433 -0.803207531480645 0
    outer loop
      vertex 5.555702330196022 -8.314696123025453 -5
      vertex 6.343932841636455 -7.73010453362737 5
      vertex 5.555702330196022 -8.314696123025453 5
    endloop
  endfacet
  facet normal 0.595699304492433 -0.803207531480645 0
    outer loop
      vertex 6.343932841636455 -7.73010453362737 5
      vertex 5.555702330196022 -8.314696123025453 -5
      vertex 6.343932841636455 -7.73010453362737 -5
    endloop
  endfacet
  facet normal 0.6715589548470183 -0.7409511253549591 0
    outer loop
      vertex 6.343932841636455 -7.73010453362737 -5
      vertex 7.0710678118654755 -7.0710678118654755 5
      vertex 6.343932841636455 -7.73010453362737 5
    endloop
  endfacet
  facet normal 0.6715589548470183 -0.7409511253549591 0
    outer loop
      vertex 7.0710678118654755 -7.0710678118654755 5
      vertex 6.343932841636455 -7.73010453362737 -5
      vertex 7.0710678118654755 -7.0710678118654755 -5
    endloop
  endfacet
  facet normal 0.7409511253549591 -0.6715589548470183 0
    outer loop
      vertex 7.0710678118654755 -7.0710678118654755 5
      vertex 7.73010453362737 -6.343932841636455 -5
      vertex 7.73010453362737 -6.343932841636455 5
    endloop
  endfacet
  facet normal 0.7409511253549591 -0.6715589548470183 0
    outer loop
      vertex 7.73010453362737 -6.343932841636455 -5
      vertex 7.0710678118654755 -7.0710678118654755 5
      vertex 7.0710678118654755 -7.0710678118654755 -5
    endloop
  endfacet
  facet normal 0.803207531480645 -0.595699304492433 0
    outer loop
      vertex 7.73010453362737 -6.343932841636455 5
      vertex 8.314696123025453 -5.555702330196022 -5
      vertex 8.314696123025453 -5.555702330196022 5
    endloop
  endfacet
  facet normal 0.803207531480645 -0.595699304492433 0
    outer loop
      vertex 8.314696123025453 -5.555702330196022 -5
      vertex 7.73010453362737 -6.343932841636455 5
      vertex 7.73010453362737 -6.343932841636455 -5
    endloop
  endfacet
  facet normal 0.8577286100002717 -0.5141027441932224 0
    outer loop
      vertex 8.314696123025453 -5.555702330196022 5
      vertex 8.819212643483551 -4.7139673682599765 -5
      vertex 8.819212643483551 -4.7139673682599765 5
    endloop
  endfacet
  facet normal 0.8577286100002717 -0.5141027441932224 0
    outer loop
      vertex 8.819212643483551 -4.7139673682599765 -5
      vertex 8.314696123025453 -5.555702330196022 5
      vertex 8.314696123025453 -5.555702330196022 -5
    endloop
  endfacet
  facet normal 0.9039892931234436 -0.4275550934302817 0
    outer loop
      vertex 8.819212643483551 -4.7139673682599765 5
      vertex 9.238795325112868 -3.826834323650898 -5
      vertex 9.238795325112868 -3.826834323650898 5
    endloop
  endfacet
  facet normal 0.9039892931234436 -0.4275550934302817 0
    outer loop
      vertex 9.238795325112868 -3.826834323650898 -5
      vertex 8.819212643483551 -4.7139673682599765 5
      vertex 8.819212643483551 -4.7139673682599765 -5
    endloop
  endfacet
  facet normal 0.9415440651830213 -0.33688985339221883 0
    outer loop
      vertex 9.238795325112868 -3.826834323650898 5
      vertex 9.569403357322088 -2.902846772544623 -5
      vertex 9.569403357322088 -2.902846772544623 5
    endloop
  endfacet
  facet normal 0.9415440651830213 -0.33688985339221883 0
    outer loop
      vertex 9.569403357322088 -2.902846772544623 -5
      vertex 9.238795325112868 -3.826834323650898 5
      vertex 9.238795325112868 -3.826834323650898 -5
    endloop
  endfacet
  facet normal 0.9700312531945439 -0.2429801799032646 0
    outer loop
      vertex 9.569403357322088 -2.902846772544623 5
      vertex 9.807852804032304 -1.9509032201612824 -5
      vertex 9.807852804032304 -1.9509032201612824 5
    endloop
  endfacet
  facet normal 0.9700312531945439 -0.2429801799032646 0
    outer loop
      vertex 9.807852804032304 -1.9509032201612824 -5
      vertex 9.569403357322088 -2.902846772544623 5
      vertex 9.569403357322088 -2.902846772544623 -5
    endloop
  endfacet
  facet normal 0.9891765099647808 -0.14673047445536283 0
    outer loop
      vertex 9.807852804032304 -1.9509032201612824 5
      vertex 9.95184726672197 -0.980171403295606 -5
      vertex 9.95184726672197 -0.980171403295606 5
    endloop
  endfacet
  facet normal 0.9891765099647808 -0.14673047445536283 0
    outer loop
      vertex 9.95184726672197 -0.980171403295606 -5
      vertex 9.807852804032304 -1.9509032201612824 5
      vertex 9.807852804032304 -1.9509032201612824 -5
    endloop
  endfacet
  facet normal 0.9987954562051724 -0.049067674327417134 0
    outer loop
      vertex 9.95184726672197 -0.980171403295606 5
      vertex 10 0 -5
      vertex 10 0 5
    endloop
  endfacet
  facet normal 0.9987954562051724 -0.049067674327417134 0
    outer loop
      vertex 10 0 -5
      vertex 9.95184726672197 -0.980171403295606 5
      vertex 9.95184726672197 -0.980171403295606 -5
    endloop
  endfacet
  facet normal 0 0 -1
    outer loop
      vertex 9.95184726672197 -0.980171403295606 -5
      vertex 9.95184726672197 0.980171403295606 -5
      vertex 10 0 -5
    endloop
  endfacet
  facet normal 0 0 -1
    outer loop
      vertex 9.807852804032304 -1.9509032201612824 -5
      vertex 9.95184726672197 0.980171403295606 -5
      vertex 9.95184726672197 -0.980171403295606 -5
    endloop
  endfacet
  facet normal 0 0 -1
    outer loop
      vertex 9.807852804032304 -1.9509032201612824 -5
      vertex 9.807852804032304 1.9509032201612824 -5
      vertex 9.95184726672197 0.980171403295606 -5
    endloop
  endfacet
  facet normal 0 0 -1
    outer loop
      vertex 9.569403357322088 -2.902846772544623 -5
      vertex 9.807852804032304 1.9509032201612824 -5
      vertex 9.807852804032304 -1.9509032201612824 -5
    endloop
  endfacet
  facet normal 0 0 -1
    outer loop
      vertex 9.569403357322088 -2.902846772544623 -5
      vertex 9.569403357322088 2.902846772544623 -5
      vertex 9.807852804032304 1.9509032201612824 -5
    endloop
  endfacet
  facet normal 0 0 -1
    outer loop
      vertex 9.238795325112868 -3.826834323650898 -5
      vertex 9.569403357322088 2.902846772544623 -5
      vertex 9.569403357322088 -2.902846772544623 -5
    endloop
  endfacet
  facet normal 0 0 -1
    outer loop
      vertex 9.238795325112868 -3.826834323650898 -5
      vertex 9.238795325112868 3.826834323650898 -5
      vertex 9.569403357322088 2.902846772544623 -5
    endloop
  endfacet
  facet normal 0 0 -1
    outer loop
      vertex 8.819212643483551 -4.7139673682599765 -5
      vertex 9.238795325112868 3.826834323650898 -5
      vertex 9.238795325112868 -3.826834323650898 -5
    endloop
  endfacet
  facet normal 0 0 -1
    outer loop
      vertex 8.819212643483551 -4.7139673682599765 -5
      vertex 8.819212643483551 4.7139673682599765 -5
      vertex 9.238795325112868 3.826834323650898 -5
    endloop
  endfacet
  facet normal 0 0 -1
    outer loop
      vertex 8.314696123025453 -5.555702330196022 -5
      vertex 8.819212643483551 4.7139673682599765 -5
      vertex 8.819212643483551 -4.7139673682599765 -5
    endloop
  endfacet
  facet normal 0 0 -1
    outer loop
      vertex 8.314696123025453 -5.555702330196022 -5
      vertex 8.314696123025453 5.555702330196022 -5
      vertex 8.819212643483551 4.7139673682599765 -5
    endloop
  endfacet
  facet normal 0 0 -1
    outer loop
      vertex 7.73010453362737 -6.343932841636455 -5
      vertex 8.314696123025453 5.555702330196022 -5
      vertex 8.314696123025453 -5.555702330196022 -5
    endloop
  endfacet
  facet normal 0 0 -1
    outer loop
      vertex 7.73010453362737 -6.343932841636455 -5
      vertex 7.73010453362737 6.343932841636455 -5
      vertex 8.314696123025453 5.555702330196022 -5
    endloop
  endfacet
  facet normal 0 0 -1
    outer loop
      vertex 7.0710678118654755 -7.0710678118654755 -5
      vertex 7.73010453362737 6.343932841636455 -5
      vertex 7.73010453362737 -6.343932841636455 -5
    endloop
  endfacet
  facet normal 0 0 -1
    outer loop
      vertex 7.0710678118654755 -7.0710678118654755 -5
      vertex 7.0710678118654755 7.0710678118654755 -5
      vertex 7.73010453362737 6.343932841636455 -5
    endloop
  endfacet
  facet normal 0 0 -1
    outer loop
      vertex 6.343932841636455 -7.73010453362737 -5
      vertex 7.0710678118654755 7.0710678118654755 -5
      vertex 7.0710678118654755 -7.0710678118654755 -5
    endloop
  endfacet
  facet normal 0 0 -1
    outer loop
      vertex 6.343932841636455 -7.73010453362737 -5
      vertex 6.343932841636455 7.73010453362737 -5
      vertex 7.0710678118654755 7.0710678118654755 -5
    endloop
  endfacet
  facet normal 0 0 -1
    outer loop
      vertex 5.555702330196022 -8.314696123025453 -5
      vertex 6.343932841636455 7.73010453362737 -5
      vertex 6.343932841636455 -7.73010453362737 -5
    endloop
  endfacet
  facet normal 0 0 -1
    outer loop
      vertex 5.555702330196022 -8.314696123025453 -5
      vertex 5.555702330196022 8.314696123025453 -5
      vertex 6.343932841636455 7.73010453362737 -5
    endloop
  endfacet
  facet normal 0 0 -1
    outer loop
      vertex 4.7139673682599765 -8.819212643483551 -5
      vertex 5.555702330196022 8.314696123025453 -5
      vertex 5.555702330196022 -8.314696123025453 -5
    endloop
  endfacet
  facet normal 0 0 -1
    outer loop
      vertex 4.7139673682599765 -8.819212643483551 -5
      vertex 4.7139673682599765 8.819212643483551 -5
      vertex 5.555702330196022 8.314696123025453 -5
    endloop
  endfacet
  facet normal 0 0 -1
    outer loop
      vertex 3.826834323650898 -9.238795325112868 -5
      vertex 4.7139673682599765 8.819212643483551 -5
      vertex 4.7139673682599765 -8.819212643483551 -5
    endloop
  endfacet
  facet normal 0 0 -1
    outer loop
      vertex 3.826834323650898 -9.238795325112868 -5
      vertex 3.826834323650898 9.238795325112868 -5
      vertex 4.7139673682599765 8.819212643483551 -5
    endloop
  endfacet
  facet normal 0 0 -1
    outer loop
      vertex 2.902846772544623 -9.569403357322088 -5
      vertex 3.826834323650898 9.238795325112868 -5
      vertex 3.826834323650898 -9.238795325112868 -5
    endloop
  endfacet
  facet normal 0 0 -1
    outer loop
      vertex 2.902846772544623 -9.569403357322088 -5
      vertex 2.902846772544623 9.569403357322088 -5
      vertex 3.826834323650898 9.238795325112868 -5
    endloop
  endfacet
  facet normal 0 0 -1
    outer loop
      vertex 1.9509032201612824 -9.807852804032304 -5
      vertex 2.902846772544623 9.569403357322088 -5
      vertex 2.902846772544623 -9.569403357322088 -5
    endloop
  endfacet
  facet normal 0 0 -1
    outer loop
      vertex 1.9509032201612824 -9.807852804032304 -5
      vertex 1.9509032201612824 9.807852804032304 -5
      vertex 2.902846772544623 9.569403357322088 -5
    endloop
  endfacet
  facet normal 0 0 -1
    outer loop
      vertex 0.980171403295606 -9.95184726672197 -5
      vertex 1.9509032201612824 9.807852804032304 -5
      vertex 1.9509032201612824 -9.807852804032304 -5
    endloop
  endfacet
  facet normal 0 0 -1
    outer loop
      vertex 0.980171403295606 -9.95184726672197 -5
      vertex 0.980171403295606 9.95184726672197 -5
      vertex 1.9509032201612824 9.807852804032304 -5
    endloop
  endfacet
  facet normal 0 0 -1
    outer loop
      vertex 0 -10 -5
      vertex 0.980171403295606 9.95184726672197 -5
      vertex 0.980171403295606 -9.95184726672197 -5
    endloop
  endfacet
  facet normal 0 0 -1
    outer loop
      vertex 0 -10 -5
      vertex 0 10 -5
      vertex 0.980171403295606 9.95184726672197 -5
    endloop
  endfacet
  facet normal 0 0 -1
    outer loop
      vertex -0.980171403295606 -9.95184726672197 -5
      vertex 0 10 -5
      vertex 0 -10 -5
    endloop
  endfacet
  facet normal 0 0 -1
    outer loop
      vertex -0.980171403295606 -9.95184726672197 -5
      vertex -0.980171403295606 9.95184726672197 -5
      vertex 0 10 -5
    endloop
  endfacet
  facet normal 0 0 -1
    outer loop
      vertex -1.9509032201612824 -9.807852804032304 -5
      vertex -0.980171403295606 9.95184726672197 -5
      vertex -0.980171403295606 -9.95184726672197 -5
    endloop
  endfacet
  facet normal 0 0 -1
    outer loop
      vertex -1.9509032201612824 -9.807852804032304 -5
      vertex -1.9509032201612824 9.807852804032304 -5
      vertex -0.980171403295606 9.95184726672197 -5
    endloop
  endfacet
  facet normal 0 0 -1
    outer loop
      vertex -2.902846772544623 -9.569403357322088 -5
      vertex -1.9509032201612824 9.807852804032304 -5
      vertex -1.9509032201612824 -9.807852804032304 -5
    endloop
  endfacet
  facet normal 0 0 -1
    outer loop
      vertex -2.902846772544623 -9.569403357322088 -5
      vertex -2.902846772544623 9.569403357322088 -5
      vertex -1.9509032201612824 9.807852804032304 -5
    endloop
  endfacet
  facet normal 0 0 -1
    outer loop
      vertex -3.826834323650898 -9.238795325112868 -5
      vertex -2.902846772544623 9.569403357322088 -5
      vertex -2.902846772544623 -9.569403357322088 -5
    endloop
  endfacet
  facet normal 0 0 -1
    outer loop
      vertex -3.826834323650898 -9.238795325112868 -5
      vertex -3.826834323650898 9.238795325112868 -5
      vertex -2.902846772544623 9.569403357322088 -5
    endloop
  endfacet
  facet normal 0 0 -1
    outer loop
      vertex -4.7139673682599765 -8.819212643483551 -5
      vertex -3.826834323650898 9.238795325112868 -5
      vertex -3.826834323650898 -9.238795325112868 -5
    endloop
  endfacet
  facet normal 0 0 -1
    outer loop
      vertex -4.7139673682599765 -8.819212643483551 -5
      vertex -4.7139673682599765 8.819212643483551 -5
      vertex -3.826834323650898 9.238795325112868 -5
    endloop
  endfacet
  facet normal 0 0 -1
    outer loop
      vertex -5.555702330196022 -8.314696123025453 -5
      vertex -4.7139673682599765 8.819212643483551 -5
      vertex -4.7139673682599765 -8.819212643483551 -5
    endloop
  endfacet
  facet normal 0 0 -1
    outer loop
      vertex -5.555702330196022 -8.314696123025453 -5
      vertex -5.555702330196022 8.314696123025453 -5
      vertex -4.7139673682599765 8.819212643483551 -5
    endloop
  endfacet
  facet normal 0 0 -1
    outer loop
      vertex -6.343932841636455 -7.73010453362737 -5
      vertex -5.555702330196022 8.314696123025453 -5
      vertex -5.555702330196022 -8.314696123025453 -5
    endloop
  endfacet
  facet normal 0 0 -1
    outer loop
      vertex -6.343932841636455 -7.73010453362737 -5
      vertex -6.343932841636455 7.73010453362737 -5
      vertex -5.555702330196022 8.314696123025453 -5
    endloop
  endfacet
  facet normal 0 0 -1
    outer loop
      vertex -7.0710678118654755 -7.0710678118654755 -5
      vertex -6.343932841636455 7.73010453362737 -5
      vertex -6.343932841636455 -7.73010453362737 -5
    endloop
  endfacet
  facet normal 0 0 -1
    outer loop
      vertex -7.0710678118654755 -7.0710678118654755 -5
      vertex -7.0710678118654755 7.0710678118654755 -5
      vertex -6.343932841636455 7.73010453362737 -5
    endloop
  endfacet
  facet normal 0 0 -1
    outer loop
      vertex -7.73010453362737 -6.343932841636455 -5
      vertex -7.0710678118654755 7.0710678118654755 -5
      vertex -7.0710678118654755 -7.0710678118654755 -5
    endloop
  endfacet
  facet normal 0 0 -1
    outer loop
      vertex -7.73010453362737 -6.343932841636455 -5
      vertex -7.73010453362737 6.343932841636455 -5
      vertex -7.0710678118654755 7.0710678118654755 -5
    endloop
  endfacet
  facet normal 0 0 -1
    outer loop
      vertex -8.314696123025453 -5.555702330196022 -5
      vertex -7.73010453362737 6.343932841636455 -5
      vertex -7.73010453362737 -6.343932841636455 -5
    endloop
  endfacet
  facet normal 0 0 -1
    outer loop
      vertex -8.314696123025453 -5.555702330196022 -5
      vertex -8.314696123025453 5.555702330196022 -5
      vertex -7.73010453362737 6.343932841636455 -5
    endloop
  endfacet
  facet normal 0 0 -1
    outer loop
      vertex -8.819212643483551 -4.7139673682599765 -5
      vertex -8.314696123025453 5.555702330196022 -5
      vertex -8.314696123025453 -5.555702330196022 -5
    endloop
  endfacet
  facet normal 0 0 -1
    outer loop
      vertex -8.819212643483551 -4.7139673682599765 -5
      vertex -8.819212643483551 4.7139673682599765 -5
      vertex -8.314696123025453 5.555702330196022 -5
    endloop
  endfacet
  facet normal 0 0 -1
    outer loop
      vertex -9.238795325112868 -3.826834323650898 -5
      vertex -8.819212643483551 4.7139673682599765 -5
      vertex -8.819212643483551 -4.7139673682599765 -5
    endloop
  endfacet
  facet normal 0 0 -1
    outer loop
      vertex -9.238795325112868 -3.826834323650898 -5
      vertex -9.238795325112868 3.826834323650898 -5
      vertex -8.819212643483551 4.7139673682599765 -5
    endloop
  endfacet
  facet normal 0 0 -1
    outer loop
      vertex -9.569403357322088 -2.902846772544623 -5
      vertex -9.238795325112868 3.826834323650898 -5
      vertex -9.238795325112868 -3.826834323650898 -5
    endloop
  endfacet
  facet normal 0 0 -1
    outer loop
      vertex -9.569403357322088 -2.902846772544623 -5
      vertex -9.569403357322088 2.902846772544623 -5
      vertex -9.238795325112868 3.826834323650898 -5
    endloop
  endfacet
  facet normal 0 0 -1
    outer loop
      vertex -9.807852804032304 -1.9509032201612824 -5
      vertex -9.569403357322088 2.902846772544623 -5
      vertex -9.569403357322088 -2.902846772544623 -5
    endloop
  endfacet
  facet normal 0 0 -1
    outer loop
      vertex -9.807852804032304 -1.9509032201612824 -5
      vertex -9.807852804032304 1.9509032201612824 -5
      vertex -9.569403357322088 2.902846772544623 -5
    endloop
  endfacet
  facet normal 0 0 -1
    outer loop
      vertex -9.95184726672197 -0.980171403295606 -5
      vertex -9.807852804032304 1.9509032201612824 -5
      vertex -9.807852804032304 -1.9509032201612824 -5
    endloop
  endfacet
  facet normal 0 0 -1
    outer loop
      vertex -9.95184726672197 -0.980171403295606 -5
      vertex -9.95184726672197 0.980171403295606 -5
      vertex -9.807852804032304 1.9509032201612824 -5
    endloop
  endfacet
  facet normal 0 0 -1
    outer loop
      vertex -9.95184726672197 0.980171403295606 -5
      vertex -9.95184726672197 -0.980171403295606 -5
      vertex -10 0 -5
    endloop
  endfacet
  facet normal 0 0 1
    outer loop
      vertex 9.95184726672197 0.980171403295606 5
      vertex 9.95184726672197 -0.980171403295606 5
      vertex 10 0 5
    endloop
  endfacet
  facet normal 0 0 1
    outer loop
      vertex 9.807852804032304 1.9509032201612824 5
      vertex 9.95184726672197 -0.980171403295606 5
      vertex 9.95184726672197 0.980171403295606 5
    endloop
  endfacet
  facet normal 0 0 1
    outer loop
      vertex 9.807852804032304 1.9509032201612824 5
      vertex 9.807852804032304 -1.9509032201612824 5
      vertex 9.95184726672197 -0.980171403295606 5
    endloop
  endfacet
  facet normal 0 0 1
    outer loop
      vertex 9.569403357322088 2.902846772544623 5
      vertex 9.807852804032304 -1.9509032201612824 5
      vertex 9.807852804032304 1.9509032201612824 5
    endloop
  endfacet
  facet normal 0 0 1
    outer loop
      vertex 9.569403357322088 2.902846772544623 5
      vertex 9.569403357322088 -2.902846772544623 5
      vertex 9.807852804032304 -1.9509032201612824 5
    endloop
  endfacet
  facet normal 0 0 1
    outer loop
      vertex 9.238795325112868 3.826834323650898 5
      vertex 9.569403357322088 -2.902846772544623 5
      vertex 9.569403357322088 2.902846772544623 5
    endloop
  endfacet
  facet normal 0 0 1
    outer loop
      vertex 9.238795325112868 3.826834323650898 5
      vertex 9.238795325112868 -3.826834323650898 5
      vertex 9.569403357322088 -2.902846772544623 5
    endloop
  endfacet
  facet normal 0 0 1
    outer loop
      vertex 8.819212643483551 4.7139673682599765 5
      vertex 9.238795325112868 -3.826834323650898 5
      vertex 9.238795325112868 3.826834323650898 5
    endloop
  endfacet
  facet normal 0 0 1
    outer loop
      vertex 8.819212643483551 4.7139673682599765 5
      vertex 8.819212643483551 -4.7139673682599765 5
      vertex 9.238795325112868 -3.826834323650898 5
    endloop
  endfacet
  facet normal 0 0 1
    outer loop
      vertex 8.314696123025453 5.555702330196022 5
      vertex 8.819212643483551 -4.7139673682599765 5
      vertex 8.819212643483551 4.7139673682599765 5
    endloop
  endfacet
  facet normal 0 0 1
    outer loop
      vertex 8.314696123025453 5.555702330196022 5
      vertex 8.314696123025453 -5.555702330196022 5
      vertex 8.819212643483551 -4.7139673682599765 5
    endloop
  endfacet
  facet normal 0 0 1
    outer loop
      vertex 7.73010453362737 6.343932841636455 5
      vertex 8.314696123025453 -5.555702330196022 5
      vertex 8.314696123025453 5.555702330196022 5
    endloop
  endfacet
  facet normal 0 0 1
    outer loop
      vertex 7.73010453362737 6.343932841636455 5
      vertex 7.73010453362737 -6.343932841636455 5
      vertex 8.314696123025453 -5.555702330196022 5
    endloop
  endfacet
  facet normal 0 0 1
    outer loop
      vertex 7.0710678118654755 7.0710678118654755 5
      vertex 7.73010453362737 -6.343932841636455 5
      vertex 7.73010453362737 6.343932841636455 5
    endloop
  endfacet
  facet normal 0 0 1
    outer loop
      vertex 7.0710678118654755 7.0710678118654755 5
      vertex 7.0710678118654755 -7.0710678118654755 5
      vertex 7.73010453362737 -6.343932841636455 5
    endloop
  endfacet
  facet normal 0 0 1
    outer loop
      vertex 6.343932841636455 7.73010453362737 5
      vertex 7.0710678118654755 -7.0710678118654755 5
      vertex 7.0710678118654755 7.0710678118654755 5
    endloop
  endfacet
  facet normal 0 0 1
    outer loop
      vertex 6.343932841636455 7.73010453362737 5
      vertex 6.343932841636455 -7.73010453362737 5
      vertex 7.0710678118654755 -7.0710678118654755 5
    endloop
  endfacet
  facet normal 0 0 1
    outer loop
      vertex 5.555702330196022 8.314696123025453 5
      vertex 6.343932841636455 -7.73010453362737 5
      vertex 6.343932841636455 7.73010453362737 5
    endloop
  endfacet
  facet normal 0 0 1
    outer loop
      vertex 5.555702330196022 8.314696123025453 5
      vertex 5.555702330196022 -8.314696123025453 5
      vertex 6.343932841636455 -7.73010453362737 5
    endloop
  endfacet
  facet normal 0 0 1
    outer loop
      vertex 4.7139673682599765 8.819212643483551 5
      vertex 5.555702330196022 -8.314696123025453 5
      vertex 5.555702330196022 8.314696123025453 5
    endloop
  endfacet
  facet normal 0 0 1
    outer loop
      vertex 4.7139673682599765 8.819212643483551 5
      vertex 4.7139673682599765 -8.819212643483551 5
      vertex 5.555702330196022 -8.314696123025453 5
    endloop
  endfacet
  facet normal 0 0 1
    outer loop
      vertex 3.826834323650898 9.238795325112868 5
      vertex 4.7139673682599765 -8.819212643483551 5
      vertex 4.7139673682599765 8.819212643483551 5
    endloop
  endfacet
  facet normal 0 0 1
    outer loop
      vertex 3.826834323650898 9.238795325112868 5
      vertex 3.826834323650898 -9.238795325112868 5
      vertex 4.7139673682599765 -8.819212643483551 5
    endloop
  endfacet
  facet normal 0 0 1
    outer loop
      vertex 2.902846772544623 9.569403357322088 5
      vertex 3.826834323650898 -9.238795325112868 5
      vertex 3.826834323650898 9.238795325112868 5
    endloop
  endfacet
  facet normal 0 0 1
    outer loop
      vertex 2.902846772544623 9.569403357322088 5
      vertex 2.902846772544623 -9.569403357322088 5
      vertex 3.826834323650898 -9.238795325112868 5
    endloop
  endfacet
  facet normal 0 0 1
    outer loop
      vertex 1.9509032201612824 9.807852804032304 5
      vertex 2.902846772544623 -9.569403357322088 5
      vertex 2.902846772544623 9.569403357322088 5
    endloop
  endfacet
  facet normal 0 0 1
    outer loop
      vertex 1.9509032201612824 9.807852804032304 5
      vertex 1.9509032201612824 -9.807852804032304 5
      vertex 2.902846772544623 -9.569403357322088 5
    endloop
  endfacet
  facet normal 0 0 1
    outer loop
      vertex 0.980171403295606 9.95184726672197 5
      vertex 1.9509032201612824 -9.807852804032304 5
      vertex 1.9509032201612824 9.807852804032304 5
    endloop
  endfacet
  facet normal 0 0 1
    outer loop
      vertex 0.980171403295606 9.95184726672197 5
      vertex 0.980171403295606 -9.95184726672197 5
      vertex 1.9509032201612824 -9.807852804032304 5
    endloop
  endfacet
  facet normal 0 0 1
    outer loop
      vertex 0 10 5
      vertex 0.980171403295606 -9.95184726672197 5
      vertex 0.980171403295606 9.95184726672197 5
    endloop
  endfacet
  facet normal 0 0 1
    outer loop
      vertex 0 10 5
      vertex 0 -10 5
      vertex 0.980171403295606 -9.95184726672197 5
    endloop
  endfacet
  facet normal 0 0 1
    outer loop
      vertex -0.980171403295606 9.95184726672197 5
      vertex 0 -10 5
      vertex 0 10 5
    endloop
  endfacet
  facet normal 0 0 1
    outer loop
      vertex -0.980171403295606 9.95184726672197 5
      vertex -0.980171403295606 -9.95184726672197 5
      vertex 0 -10 5
    endloop
  endfacet
  facet normal 0 0 1
    outer loop
      vertex -1.9509032201612824 9.807852804032304 5
      vertex -0.980171403295606 -9.95184726672197 5
      vertex -0.980171403295606 9.95184726672197 5
    endloop
  endfacet
  facet normal 0 0 1
    outer loop
      vertex -1.9509032201612824 9.807852804032304 5
      vertex -1.9509032201612824 -9.807852804032304 5
      vertex -0.980171403295606 -9.95184726672197 5
    endloop
  endfacet
  facet normal 0 0 1
    outer loop
      vertex -2.902846772544623 9.569403357322088 5
      vertex -1.9509032201612824 -9.807852804032304 5
      vertex -1.9509032201612824 9.807852804032304 5
    endloop
  endfacet
  facet normal 0 0 1
    outer loop
      vertex -2.902846772544623 9.569403357322088 5
      vertex -2.902846772544623 -9.569403357322088 5
      vertex -1.9509032201612824 -9.807852804032304 5
    endloop
  endfacet
  facet normal 0 0 1
    outer loop
      vertex -3.826834323650898 9.238795325112868 5
      vertex -2.902846772544623 -9.569403357322088 5
      vertex -2.902846772544623 9.569403357322088 5
    endloop
  endfacet
  facet normal 0 0 1
    outer loop
      vertex -3.826834323650898 9.238795325112868 5
      vertex -3.826834323650898 -9.238795325112868 5
      vertex -2.902846772544623 -9.569403357322088 5
    endloop
  endfacet
  facet normal 0 0 1
    outer loop
      vertex -4.7139673682599765 8.819212643483551 5
      vertex -3.826834323650898 -9.238795325112868 5
      vertex -3.826834323650898 9.238795325112868 5
    endloop
  endfacet
  facet normal 0 0 1
    outer loop
      vertex -4.7139673682599765 8.819212643483551 5
      vertex -4.7139673682599765 -8.819212643483551 5
      vertex -3.826834323650898 -9.238795325112868 5
    endloop
  endfacet
  facet normal 0 0 1
    outer loop
      vertex -5.555702330196022 8.314696123025453 5
      vertex -4.7139673682599765 -8.819212643483551 5
      vertex -4.7139673682599765 8.819212643483551 5
    endloop
  endfacet
  facet normal 0 0 1
    outer loop
      vertex -5.555702330196022 8.314696123025453 5
      vertex -5.555702330196022 -8.314696123025453 5
      vertex -4.7139673682599765 -8.819212643483551 5
    endloop
  endfacet
  facet normal 0 0 1
    outer loop
      vertex -6.343932841636455 7.73010453362737 5
      vertex -5.555702330196022 -8.314696123025453 5
      vertex -5.555702330196022 8.314696123025453 5
    endloop
  endfacet
  facet normal 0 0 1
    outer loop
      vertex -6.343932841636455 7.73010453362737 5
      vertex -6.343932841636455 -7.73010453362737 5
      vertex -5.555702330196022 -8.314696123025453 5
    endloop
  endfacet
  facet normal 0 0 1
    outer loop
      vertex -7.0710678118654755 7.0710678118654755 5
      vertex -6.343932841636455 -7.73010453362737 5
      vertex -6.343932841636455 7.73010453362737 5
    endloop
  endfacet
  facet normal 0 0 1
    outer loop
      vertex -7.0710678118654755 7.0710678118654755 5
      vertex -7.0710678118654755 -7.0710678118654755 5
      vertex -6.343932841636455 -7.73010453362737 5
    endloop
  endfacet
  facet normal 0 0 1
    outer loop
      vertex -7.73010453362737 6.343932841636455 5
      vertex -7.0710678118654755 -7.0710678118654755 5
      vertex -7.0710678118654755 7.0710678118654755 5
    endloop
  endfacet
  facet normal 0 0 1
    outer loop
      vertex -7.73010453362737 6.343932841636455 5
      vertex -7.73010453362737 -6.343932841636455 5
      vertex -7.0710678118654755 -7.0710678118654755 5
    endloop
  endfacet
  facet normal 0 0 1
    outer loop
      vertex -8.314696123025453 5.555702330196022 5
      vertex -7.73010453362737 -6.343932841636455 5
      vertex -7.73010453362737 6.343932841636455 5
    endloop
  endfacet
  facet normal 0 0 1
    outer loop
      vertex -8.314696123025453 5.555702330196022 5
      vertex -8.314696123025453 -5.555702330196022 5
      vertex -7.73010453362737 -6.343932841636455 5
    endloop
  endfacet
  facet normal 0 0 1
    outer loop
      vertex -8.819212643483551 4.7139673682599765 5
      vertex -8.314696123025453 -5.555702330196022 5
      vertex -8.314696123025453 5.555702330196022 5
    endloop
  endfacet
  facet normal 0 0 1
    outer loop
      vertex -8.819212643483551 4.7139673682599765 5
      vertex -8.819212643483551 -4.7139673682599765 5
      vertex -8.314696123025453 -5.555702330196022 5
    endloop
  endfacet
  facet normal 0 0 1
    outer loop
      vertex -9.238795325112868 3.826834323650898 5
      vertex -8.819212643483551 -4.7139673682599765 5
      vertex -8.819212643483551 4.7139673682599765 5
    endloop
  endfacet
  facet normal 0 0 1
    outer loop
      vertex -9.238795325112868 3.826834323650898 5
      vertex -9.238795325112868 -3.826834323650898 5
      vertex -8.819212643483551 -4.7139673682599765 5
    endloop
  endfacet
  facet normal 0 0 1
    outer loop
      vertex -9.569403357322088 2.902846772544623 5
      vertex -9.238795325112868 -3.826834323650898 5
      vertex -9.238795325112868 3.826834323650898 5
    endloop
  endfacet
  facet normal 0 0 1
    outer loop
      vertex -9.569403357322088 2.902846772544623 5
      vertex -9.569403357322088 -2.902846772544623 5
      vertex -9.238795325112868 -3.826834323650898 5
    endloop
  endfacet
  facet normal 0 0 1
    outer loop
      vertex -9.807852804032304 1.9509032201612824 5
      vertex -9.569403357322088 -2.902846772544623 5
      vertex -9.569403357322088 2.902846772544623 5
    endloop
  endfacet
  facet normal 0 0 1
    outer loop
      vertex -9.807852804032304 1.9509032201612824 5
      vertex -9.807852804032304 -1.9509032201612824 5
      vertex -9.569403357322088 -2.902846772544623 5
    endloop
  endfacet
  facet normal 0 0 1
    outer loop
      vertex -9.95184726672197 0.980171403295606 5
      vertex -9.807852804032304 -1.9509032201612824 5
      vertex -9.807852804032304 1.9509032201612824 5
    endloop
  endfacet
  facet normal 0 0 1
    outer loop
      vertex -9.95184726672197 0.980171403295606 5
      vertex -9.95184726672197 -0.980171403295606 5
      vertex -9.807852804032304 -1.9509032201612824 5
    endloop
  endfacet
  facet normal 0 0 1
    outer loop
      vertex -9.95184726672197 -0.980171403295606 5
      vertex -9.95184726672197 0.980171403295606 5
      vertex -10 0 5
    endloop
  endfacet
endsolid OpenSCAD_Model
