solid OpenSCAD_Model
  facet normal 1 -0 0
    outer loop
      vertex 50 40 20
      vertex 50 50 0
      vertex 50 50 20
    endloop
  endfacet
  facet normal 1 0 0
    outer loop
      vertex 50 50 0
      vertex 50 40 20
      vertex 50 40 0
    endloop
  endfacet
  facet normal 1 -0 0
    outer loop
      vertex 50 0 20
      vertex 50 10 0
      vertex 50 10 20
    endloop
  endfacet
  facet normal 1 0 0
    outer loop
      vertex 50 10 0
      vertex 50 0 20
      vertex 50 0 0
    endloop
  endfacet
  facet normal 0 0 1
    outer loop
      vertex 50 50 20
      vertex 49 40 20
      vertex 50 40 20
    endloop
  endfacet
  facet normal 0 0 1
    outer loop
      vertex 49 40 20
      vertex 32.5 32.5 20
      vertex 49 10 20
    endloop
  endfacet
  facet normal 0 0 1
    outer loop
      vertex 50 50 20
      vertex 32.5 32.5 20
      vertex 49 40 20
    endloop
  endfacet
  facet normal 0 0 1
    outer loop
      vertex 50 50 20
      vertex 17.5 32.5 20
      vertex 32.5 32.5 20
    endloop
  endfacet
  facet normal 0 0 1
    outer loop
      vertex 17.5 32.5 20
      vertex 0 50 20
      vertex 17.5 17.5 20
    endloop
  endfacet
  facet normal -0 0 1
    outer loop
      vertex 0 50 20
      vertex 17.5 32.5 20
      vertex 50 50 20
    endloop
  endfacet
  facet normal -0 0 1
    outer loop
      vertex 49 10 20
      vertex 50 0 20
      vertex 50 10 20
    endloop
  endfacet
  facet normal -0 0 1
    outer loop
      vertex 32.5 17.5 20
      vertex 49 10 20
      vertex 32.5 32.5 20
    endloop
  endfacet
  facet normal 0 0 1
    outer loop
      vertex 49 10 20
      vertex 32.5 17.5 20
      vertex 50 0 20
    endloop
  endfacet
  facet normal -0 0 1
    outer loop
      vertex 17.5 17.5 20
      vertex 50 0 20
      vertex 32.5 17.5 20
    endloop
  endfacet
  facet normal 0 0 1
    outer loop
      vertex 17.5 17.5 20
      vertex 0 0 20
      vertex 50 0 20
    endloop
  endfacet
  facet normal 0 0 1
    outer loop
      vertex 0 0 20
      vertex 17.5 17.5 20
      vertex 0 50 20
    endloop
  endfacet
  facet normal 0 0 -1
    outer loop
      vertex 50 0 0
      vertex 49 10 0
      vertex 50 10 0
    endloop
  endfacet
  facet normal -0 0 -1
    outer loop
      vertex 49 10 0
      vertex 0 0 0
      vertex 49 40 0
    endloop
  endfacet
  facet normal 0 0 -1
    outer loop
      vertex 0 0 0
      vertex 49 10 0
      vertex 50 0 0
    endloop
  endfacet
  facet normal 0 0 -1
    outer loop
      vertex 49 40 0
      vertex 50 50 0
      vertex 50 40 0
    endloop
  endfacet
  facet normal 0 0 -1
    outer loop
      vertex 0 50 0
      vertex 49 40 0
      vertex 0 0 0
    endloop
  endfacet
  facet normal 0 0 -1
    outer loop
      vertex 49 40 0
      vertex 0 50 0
      vertex 50 50 0
    endloop
  endfacet
  facet normal -1 0 0
    outer loop
      vertex 0 0 0
      vertex 0 50 20
      vertex 0 50 0
    endloop
  endfacet
  facet normal -1 -0 0
    outer loop
      vertex 0 50 20
      vertex 0 0 0
      vertex 0 0 20
    endloop
  endfacet
  facet normal 0 1 -0
    outer loop
      vertex 50 50 0
      vertex 0 50 20
      vertex 50 50 20
    endloop
  endfacet
  facet normal 0 1 0
    outer loop
      vertex 0 50 20
      vertex 50 50 0
      vertex 0 50 0
    endloop
  endfacet
  facet normal 0 -1 0
    outer loop
      vertex 0 0 0
      vertex 50 0 20
      vertex 0 0 20
    endloop
  endfacet
  facet normal 0 -1 -0
    outer loop
      vertex 50 0 20
      vertex 0 0 0
      vertex 50 0 0
    endloop
  endfacet
  facet normal 1 -0 0
    outer loop
      vertex 49 10 20
      vertex 49 40 0
      vertex 49 40 20
    endloop
  endfacet
  facet normal 1 0 0
    outer loop
      vertex 49 40 0
      vertex 49 10 20
      vertex 49 10 0
    endloop
  endfacet
  facet normal 0 -1 0
    outer loop
      vertex 49 40 0
      vertex 50 40 20
      vertex 49 40 20
    endloop
  endfacet
  facet normal 0 -1 -0
    outer loop
      vertex 50 40 20
      vertex 49 40 0
      vertex 50 40 0
    endloop
  endfacet
  facet normal 0 1 -0
    outer loop
      vertex 50 10 0
      vertex 49 10 20
      vertex 50 10 20
    endloop
  endfacet
  facet normal 0 1 0
    outer loop
      vertex 49 10 20
      vertex 50 10 0
      vertex 49 10 0
    endloop
  endfacet
  facet normal 0.989176 0.146736 0
    outer loop
      vertex 69.7833 29.4108 180
      vertex 69.1353 33.7791 120
      vertex 69.1353 33.7791 180
    endloop
  endfacet
  facet normal 0.989176 0.146736 0
    outer loop
      vertex 69.1353 33.7791 120
      vertex 69.7833 29.4108 180
      vertex 69.7833 29.4108 120
    endloop
  endfacet
  facet normal 0.998795 0.0490702 0
    outer loop
      vertex 70 25 180
      vertex 69.7833 29.4108 120
      vertex 69.7833 29.4108 180
    endloop
  endfacet
  facet normal 0.998795 0.0490702 0
    outer loop
      vertex 69.7833 29.4108 120
      vertex 70 25 180
      vertex 70 25 120
    endloop
  endfacet
  facet normal 0.970032 0.242978 0
    outer loop
      vertex 69.1353 33.7791 180
      vertex 68.0623 38.0628 120
      vertex 68.0623 38.0628 180
    endloop
  endfacet
  facet normal 0.970032 0.242978 0
    outer loop
      vertex 68.0623 38.0628 120
      vertex 69.1353 33.7791 180
      vertex 69.1353 33.7791 120
    endloop
  endfacet
  facet normal 0.857721 0.514116 0
    outer loop
      vertex 64.6865 46.2129 180
      vertex 62.4161 50.0007 120
      vertex 62.4161 50.0007 180
    endloop
  endfacet
  facet normal 0.857721 0.514116 0
    outer loop
      vertex 62.4161 50.0007 120
      vertex 64.6865 46.2129 180
      vertex 64.6865 46.2129 120
    endloop
  endfacet
  facet normal 0.740946 0.671564 0
    outer loop
      vertex 59.7855 53.5477 180
      vertex 56.8198 56.8198 120
      vertex 56.8198 56.8198 180
    endloop
  endfacet
  facet normal 0.740946 0.671564 0
    outer loop
      vertex 56.8198 56.8198 120
      vertex 59.7855 53.5477 180
      vertex 59.7855 53.5477 120
    endloop
  endfacet
  facet normal -0.242978 0.970032 0
    outer loop
      vertex 16.2209 69.1353 120
      vertex 11.9372 68.0623 180
      vertex 16.2209 69.1353 180
    endloop
  endfacet
  facet normal -0.242978 0.970032 0
    outer loop
      vertex 11.9372 68.0623 180
      vertex 16.2209 69.1353 120
      vertex 11.9372 68.0623 120
    endloop
  endfacet
  facet normal -0.803208 0.595699 0
    outer loop
      vertex -12.4161 50.0007 120
      vertex -9.78547 53.5477 180
      vertex -9.78547 53.5477 120
    endloop
  endfacet
  facet normal -0.803208 0.595699 0
    outer loop
      vertex -9.78547 53.5477 180
      vertex -12.4161 50.0007 120
      vertex -12.4161 50.0007 180
    endloop
  endfacet
  facet normal 0 0 -1
    outer loop
      vertex 32.5 17.5 120
      vertex 70 25 120
      vertex 69.7833 20.5892 120
    endloop
  endfacet
  facet normal 0 0 -1
    outer loop
      vertex 32.5 17.5 120
      vertex 69.7833 20.5892 120
      vertex 69.1353 16.2209 120
    endloop
  endfacet
  facet normal 0 0 -1
    outer loop
      vertex 32.5 32.5 120
      vertex 70 25 120
      vertex 32.5 17.5 120
    endloop
  endfacet
  facet normal 0 0 -1
    outer loop
      vertex 32.5 17.5 120
      vertex 69.1353 16.2209 120
      vertex 68.0623 11.9372 120
    endloop
  endfacet
  facet normal 0 0 -1
    outer loop
      vertex 70 25 120
      vertex 32.5 32.5 120
      vertex 69.7833 29.4108 120
    endloop
  endfacet
  facet normal 0 0 -1
    outer loop
      vertex 32.5 17.5 120
      vertex 68.0623 11.9372 120
      vertex 66.5746 7.77925 120
    endloop
  endfacet
  facet normal 0 0 -1
    outer loop
      vertex 69.7833 29.4108 120
      vertex 32.5 32.5 120
      vertex 69.1353 33.7791 120
    endloop
  endfacet
  facet normal 0 0 -1
    outer loop
      vertex 32.5 17.5 120
      vertex 66.5746 7.77925 120
      vertex 64.6865 3.78715 120
    endloop
  endfacet
  facet normal -0 0 -1
    outer loop
      vertex 69.1353 33.7791 120
      vertex 32.5 32.5 120
      vertex 68.0623 38.0628 120
    endloop
  endfacet
  facet normal 0 0 -1
    outer loop
      vertex 32.5 17.5 120
      vertex 64.6865 3.78715 120
      vertex 62.4161 -0.000659943 120
    endloop
  endfacet
  facet normal -0 0 -1
    outer loop
      vertex 68.0623 38.0628 120
      vertex 32.5 32.5 120
      vertex 66.5746 42.2208 120
    endloop
  endfacet
  facet normal 0 0 -1
    outer loop
      vertex 32.5 17.5 120
      vertex 62.4161 -0.000659943 120
      vertex 59.7855 -3.5477 120
    endloop
  endfacet
  facet normal -0 0 -1
    outer loop
      vertex 66.5746 42.2208 120
      vertex 32.5 32.5 120
      vertex 64.6865 46.2129 120
    endloop
  endfacet
  facet normal 0 0 -1
    outer loop
      vertex 32.5 17.5 120
      vertex 59.7855 -3.5477 120
      vertex 56.8198 -6.81981 120
    endloop
  endfacet
  facet normal -0 0 -1
    outer loop
      vertex 64.6865 46.2129 120
      vertex 32.5 32.5 120
      vertex 62.4161 50.0007 120
    endloop
  endfacet
  facet normal 0 0 -1
    outer loop
      vertex 32.5 17.5 120
      vertex 56.8198 -6.81981 120
      vertex 53.5477 -9.78547 120
    endloop
  endfacet
  facet normal -0 0 -1
    outer loop
      vertex 62.4161 50.0007 120
      vertex 32.5 32.5 120
      vertex 59.7855 53.5477 120
    endloop
  endfacet
  facet normal 0 0 -1
    outer loop
      vertex 32.5 17.5 120
      vertex 53.5477 -9.78547 120
      vertex 50.0007 -12.4161 120
    endloop
  endfacet
  facet normal -0 0 -1
    outer loop
      vertex 59.7855 53.5477 120
      vertex 32.5 32.5 120
      vertex 56.8198 56.8198 120
    endloop
  endfacet
  facet normal 0 0 -1
    outer loop
      vertex 32.5 17.5 120
      vertex 50.0007 -12.4161 120
      vertex 46.2129 -14.6865 120
    endloop
  endfacet
  facet normal -0 0 -1
    outer loop
      vertex 56.8198 56.8198 120
      vertex 32.5 32.5 120
      vertex 53.5477 59.7855 120
    endloop
  endfacet
  facet normal 0 0 -1
    outer loop
      vertex 32.5 17.5 120
      vertex 46.2129 -14.6865 120
      vertex 42.2208 -16.5746 120
    endloop
  endfacet
  facet normal -0 0 -1
    outer loop
      vertex 53.5477 59.7855 120
      vertex 32.5 32.5 120
      vertex 50.0007 62.4161 120
    endloop
  endfacet
  facet normal 0 0 -1
    outer loop
      vertex 32.5 17.5 120
      vertex 42.2208 -16.5746 120
      vertex 38.0628 -18.0623 120
    endloop
  endfacet
  facet normal -0 0 -1
    outer loop
      vertex 50.0007 62.4161 120
      vertex 32.5 32.5 120
      vertex 46.2129 64.6865 120
    endloop
  endfacet
  facet normal 0 0 -1
    outer loop
      vertex 32.5 17.5 120
      vertex 38.0628 -18.0623 120
      vertex 33.7791 -19.1353 120
    endloop
  endfacet
  facet normal -0 0 -1
    outer loop
      vertex 46.2129 64.6865 120
      vertex 32.5 32.5 120
      vertex 42.2208 66.5746 120
    endloop
  endfacet
  facet normal -0 0 -1
    outer loop
      vertex 42.2208 66.5746 120
      vertex 32.5 32.5 120
      vertex 38.0628 68.0623 120
    endloop
  endfacet
  facet normal 0 0 -1
    outer loop
      vertex 29.4108 -19.7833 120
      vertex 32.5 17.5 120
      vertex 33.7791 -19.1353 120
    endloop
  endfacet
  facet normal 0 0 -1
    outer loop
      vertex 25 -20 120
      vertex 32.5 17.5 120
      vertex 29.4108 -19.7833 120
    endloop
  endfacet
  facet normal 0 0 -1
    outer loop
      vertex 17.5 17.5 120
      vertex 25 -20 120
      vertex 20.5892 -19.7833 120
    endloop
  endfacet
  facet normal 0 0 -1
    outer loop
      vertex 25 -20 120
      vertex 17.5 17.5 120
      vertex 32.5 17.5 120
    endloop
  endfacet
  facet normal 0 0 -1
    outer loop
      vertex 11.9372 -18.0623 120
      vertex 17.5 17.5 120
      vertex 16.2209 -19.1353 120
    endloop
  endfacet
  facet normal 0 0 -1
    outer loop
      vertex 16.2209 -19.1353 120
      vertex 17.5 17.5 120
      vertex 20.5892 -19.7833 120
    endloop
  endfacet
  facet normal -0 0 -1
    outer loop
      vertex 38.0628 68.0623 120
      vertex 32.5 32.5 120
      vertex 33.7791 69.1353 120
    endloop
  endfacet
  facet normal 0 0 -1
    outer loop
      vertex 32.5 32.5 120
      vertex 29.4108 69.7833 120
      vertex 33.7791 69.1353 120
    endloop
  endfacet
  facet normal 0 0 -1
    outer loop
      vertex 32.5 32.5 120
      vertex 25 70 120
      vertex 29.4108 69.7833 120
    endloop
  endfacet
  facet normal 0 0 -1
    outer loop
      vertex 17.5 32.5 120
      vertex 25 70 120
      vertex 32.5 32.5 120
    endloop
  endfacet
  facet normal 0 0 -1
    outer loop
      vertex 25 70 120
      vertex 17.5 32.5 120
      vertex 20.5892 69.7833 120
    endloop
  endfacet
  facet normal 0 0 -1
    outer loop
      vertex 17.5 32.5 120
      vertex 16.2209 69.1353 120
      vertex 20.5892 69.7833 120
    endloop
  endfacet
  facet normal 0 0 -1
    outer loop
      vertex 7.77925 -16.5746 120
      vertex 17.5 17.5 120
      vertex 11.9372 -18.0623 120
    endloop
  endfacet
  facet normal 0 0 -1
    outer loop
      vertex 3.78715 -14.6865 120
      vertex 17.5 17.5 120
      vertex 7.77925 -16.5746 120
    endloop
  endfacet
  facet normal 0 0 -1
    outer loop
      vertex 17.5 32.5 120
      vertex 11.9372 68.0623 120
      vertex 16.2209 69.1353 120
    endloop
  endfacet
  facet normal 0 0 -1
    outer loop
      vertex -0.000659943 -12.4161 120
      vertex 17.5 17.5 120
      vertex 3.78715 -14.6865 120
    endloop
  endfacet
  facet normal 0 0 -1
    outer loop
      vertex 17.5 32.5 120
      vertex 7.77925 66.5746 120
      vertex 11.9372 68.0623 120
    endloop
  endfacet
  facet normal 0 0 -1
    outer loop
      vertex -3.5477 -9.78547 120
      vertex 17.5 17.5 120
      vertex -0.000659943 -12.4161 120
    endloop
  endfacet
  facet normal 0 0 -1
    outer loop
      vertex 17.5 32.5 120
      vertex 3.78715 64.6865 120
      vertex 7.77925 66.5746 120
    endloop
  endfacet
  facet normal 0 0 -1
    outer loop
      vertex -6.81981 -6.81981 120
      vertex 17.5 17.5 120
      vertex -3.5477 -9.78547 120
    endloop
  endfacet
  facet normal 0 0 -1
    outer loop
      vertex 17.5 32.5 120
      vertex -0.000659943 62.4161 120
      vertex 3.78715 64.6865 120
    endloop
  endfacet
  facet normal 0 0 -1
    outer loop
      vertex -9.78547 -3.5477 120
      vertex 17.5 17.5 120
      vertex -6.81981 -6.81981 120
    endloop
  endfacet
  facet normal 0 0 -1
    outer loop
      vertex 17.5 32.5 120
      vertex -3.5477 59.7855 120
      vertex -0.000659943 62.4161 120
    endloop
  endfacet
  facet normal 0 0 -1
    outer loop
      vertex -12.4161 -0.000659943 120
      vertex 17.5 17.5 120
      vertex -9.78547 -3.5477 120
    endloop
  endfacet
  facet normal 0 0 -1
    outer loop
      vertex 17.5 32.5 120
      vertex -6.81981 56.8198 120
      vertex -3.5477 59.7855 120
    endloop
  endfacet
  facet normal 0 0 -1
    outer loop
      vertex -14.6865 3.78715 120
      vertex 17.5 17.5 120
      vertex -12.4161 -0.000659943 120
    endloop
  endfacet
  facet normal 0 0 -1
    outer loop
      vertex 17.5 32.5 120
      vertex -9.78547 53.5477 120
      vertex -6.81981 56.8198 120
    endloop
  endfacet
  facet normal 0 0 -1
    outer loop
      vertex -16.5746 7.77925 120
      vertex 17.5 17.5 120
      vertex -14.6865 3.78715 120
    endloop
  endfacet
  facet normal 0 0 -1
    outer loop
      vertex 17.5 32.5 120
      vertex -12.4161 50.0007 120
      vertex -9.78547 53.5477 120
    endloop
  endfacet
  facet normal 0 0 -1
    outer loop
      vertex -18.0623 11.9372 120
      vertex 17.5 17.5 120
      vertex -16.5746 7.77925 120
    endloop
  endfacet
  facet normal 0 0 -1
    outer loop
      vertex 17.5 32.5 120
      vertex -14.6865 46.2129 120
      vertex -12.4161 50.0007 120
    endloop
  endfacet
  facet normal 0 0 -1
    outer loop
      vertex -19.1353 16.2209 120
      vertex 17.5 17.5 120
      vertex -18.0623 11.9372 120
    endloop
  endfacet
  facet normal 0 0 -1
    outer loop
      vertex 17.5 32.5 120
      vertex -16.5746 42.2208 120
      vertex -14.6865 46.2129 120
    endloop
  endfacet
  facet normal 0 0 -1
    outer loop
      vertex -19.7833 20.5892 120
      vertex 17.5 17.5 120
      vertex -19.1353 16.2209 120
    endloop
  endfacet
  facet normal 0 0 -1
    outer loop
      vertex 17.5 32.5 120
      vertex -18.0623 38.0628 120
      vertex -16.5746 42.2208 120
    endloop
  endfacet
  facet normal 0 0 -1
    outer loop
      vertex -20 25 120
      vertex 17.5 17.5 120
      vertex -19.7833 20.5892 120
    endloop
  endfacet
  facet normal 0 0 -1
    outer loop
      vertex 17.5 32.5 120
      vertex -19.1353 33.7791 120
      vertex -18.0623 38.0628 120
    endloop
  endfacet
  facet normal 0 0 -1
    outer loop
      vertex 17.5 17.5 120
      vertex -20 25 120
      vertex 17.5 32.5 120
    endloop
  endfacet
  facet normal -0 0 -1
    outer loop
      vertex 17.5 32.5 120
      vertex -19.7833 29.4108 120
      vertex -19.1353 33.7791 120
    endloop
  endfacet
  facet normal 0 0 -1
    outer loop
      vertex 17.5 32.5 120
      vertex -20 25 120
      vertex -19.7833 29.4108 120
    endloop
  endfacet
  facet normal 0.970032 -0.242978 0
    outer loop
      vertex 68.0623 11.9372 180
      vertex 69.1353 16.2209 120
      vertex 69.1353 16.2209 180
    endloop
  endfacet
  facet normal 0.970032 -0.242978 0
    outer loop
      vertex 69.1353 16.2209 120
      vertex 68.0623 11.9372 180
      vertex 68.0623 11.9372 120
    endloop
  endfacet
  facet normal -0.514115 -0.857721 0
    outer loop
      vertex -0.000659943 -12.4161 120
      vertex 3.78715 -14.6865 180
      vertex -0.000659943 -12.4161 180
    endloop
  endfacet
  facet normal -0.514115 -0.857721 -0
    outer loop
      vertex 3.78715 -14.6865 180
      vertex -0.000659943 -12.4161 120
      vertex 3.78715 -14.6865 120
    endloop
  endfacet
  facet normal 0.671564 0.740946 -0
    outer loop
      vertex 56.8198 56.8198 120
      vertex 53.5477 59.7855 180
      vertex 56.8198 56.8198 180
    endloop
  endfacet
  facet normal 0.671564 0.740946 0
    outer loop
      vertex 53.5477 59.7855 180
      vertex 56.8198 56.8198 120
      vertex 53.5477 59.7855 120
    endloop
  endfacet
  facet normal 0.0490702 -0.998795 0
    outer loop
      vertex 25 -20 120
      vertex 29.4108 -19.7833 180
      vertex 25 -20 180
    endloop
  endfacet
  facet normal 0.0490702 -0.998795 0
    outer loop
      vertex 29.4108 -19.7833 180
      vertex 25 -20 120
      vertex 29.4108 -19.7833 120
    endloop
  endfacet
  facet normal -0.336882 0.941547 0
    outer loop
      vertex 11.9372 68.0623 120
      vertex 7.77925 66.5746 180
      vertex 11.9372 68.0623 180
    endloop
  endfacet
  facet normal -0.336882 0.941547 0
    outer loop
      vertex 7.77925 66.5746 180
      vertex 11.9372 68.0623 120
      vertex 7.77925 66.5746 120
    endloop
  endfacet
  facet normal 0.427551 0.903991 -0
    outer loop
      vertex 46.2129 64.6865 120
      vertex 42.2208 66.5746 180
      vertex 46.2129 64.6865 180
    endloop
  endfacet
  facet normal 0.427551 0.903991 0
    outer loop
      vertex 42.2208 66.5746 180
      vertex 46.2129 64.6865 120
      vertex 42.2208 66.5746 120
    endloop
  endfacet
  facet normal -0.59569 0.803214 0
    outer loop
      vertex -0.000659943 62.4161 120
      vertex -3.5477 59.7855 180
      vertex -0.000659943 62.4161 180
    endloop
  endfacet
  facet normal -0.59569 0.803214 0
    outer loop
      vertex -3.5477 59.7855 180
      vertex -0.000659943 62.4161 120
      vertex -3.5477 59.7855 120
    endloop
  endfacet
  facet normal 0.336879 0.941548 -0
    outer loop
      vertex 42.2208 66.5746 120
      vertex 38.0628 68.0623 180
      vertex 42.2208 66.5746 180
    endloop
  endfacet
  facet normal 0.336879 0.941548 0
    outer loop
      vertex 38.0628 68.0623 180
      vertex 42.2208 66.5746 120
      vertex 38.0628 68.0623 120
    endloop
  endfacet
  facet normal 0.242978 0.970032 -0
    outer loop
      vertex 38.0628 68.0623 120
      vertex 33.7791 69.1353 180
      vertex 38.0628 68.0623 180
    endloop
  endfacet
  facet normal 0.242978 0.970032 0
    outer loop
      vertex 33.7791 69.1353 180
      vertex 38.0628 68.0623 120
      vertex 33.7791 69.1353 120
    endloop
  endfacet
  facet normal 0.803211 0.595694 0
    outer loop
      vertex 62.4161 50.0007 180
      vertex 59.7855 53.5477 120
      vertex 59.7855 53.5477 180
    endloop
  endfacet
  facet normal 0.803211 0.595694 0
    outer loop
      vertex 59.7855 53.5477 120
      vertex 62.4161 50.0007 180
      vertex 62.4161 50.0007 120
    endloop
  endfacet
  facet normal 0.989176 -0.146736 0
    outer loop
      vertex 69.1353 16.2209 180
      vertex 69.7833 20.5892 120
      vertex 69.7833 20.5892 180
    endloop
  endfacet
  facet normal 0.989176 -0.146736 0
    outer loop
      vertex 69.7833 20.5892 120
      vertex 69.1353 16.2209 180
      vertex 69.1353 16.2209 120
    endloop
  endfacet
  facet normal -0.146736 -0.989176 0
    outer loop
      vertex 16.2209 -19.1353 120
      vertex 20.5892 -19.7833 180
      vertex 16.2209 -19.1353 180
    endloop
  endfacet
  facet normal -0.146736 -0.989176 -0
    outer loop
      vertex 20.5892 -19.7833 180
      vertex 16.2209 -19.1353 120
      vertex 20.5892 -19.7833 120
    endloop
  endfacet
  facet normal -0.998795 -0.0490702 0
    outer loop
      vertex -19.7833 20.5892 120
      vertex -20 25 180
      vertex -20 25 120
    endloop
  endfacet
  facet normal -0.998795 -0.0490702 0
    outer loop
      vertex -20 25 180
      vertex -19.7833 20.5892 120
      vertex -19.7833 20.5892 180
    endloop
  endfacet
  facet normal 0.0490702 0.998795 -0
    outer loop
      vertex 29.4108 69.7833 120
      vertex 25 70 180
      vertex 29.4108 69.7833 180
    endloop
  endfacet
  facet normal 0.0490702 0.998795 0
    outer loop
      vertex 25 70 180
      vertex 29.4108 69.7833 120
      vertex 25 70 120
    endloop
  endfacet
  facet normal 0.595694 0.803211 -0
    outer loop
      vertex 53.5477 59.7855 120
      vertex 50.0007 62.4161 180
      vertex 53.5477 59.7855 180
    endloop
  endfacet
  facet normal 0.595694 0.803211 0
    outer loop
      vertex 50.0007 62.4161 180
      vertex 53.5477 59.7855 120
      vertex 50.0007 62.4161 120
    endloop
  endfacet
  facet normal -0.941548 0.336879 0
    outer loop
      vertex -18.0623 38.0628 120
      vertex -16.5746 42.2208 180
      vertex -16.5746 42.2208 120
    endloop
  endfacet
  facet normal -0.941548 0.336879 0
    outer loop
      vertex -16.5746 42.2208 180
      vertex -18.0623 38.0628 120
      vertex -18.0623 38.0628 180
    endloop
  endfacet
  facet normal -0.0490702 0.998795 0
    outer loop
      vertex 25 70 120
      vertex 20.5892 69.7833 180
      vertex 25 70 180
    endloop
  endfacet
  facet normal -0.0490702 0.998795 0
    outer loop
      vertex 20.5892 69.7833 180
      vertex 25 70 120
      vertex 20.5892 69.7833 120
    endloop
  endfacet
  facet normal 0.514116 -0.857721 0
    outer loop
      vertex 46.2129 -14.6865 120
      vertex 50.0007 -12.4161 180
      vertex 46.2129 -14.6865 180
    endloop
  endfacet
  facet normal 0.514116 -0.857721 0
    outer loop
      vertex 50.0007 -12.4161 180
      vertex 46.2129 -14.6865 120
      vertex 50.0007 -12.4161 120
    endloop
  endfacet
  facet normal -0.970032 0.242978 0
    outer loop
      vertex -19.1353 33.7791 120
      vertex -18.0623 38.0628 180
      vertex -18.0623 38.0628 120
    endloop
  endfacet
  facet normal -0.970032 0.242978 0
    outer loop
      vertex -18.0623 38.0628 180
      vertex -19.1353 33.7791 120
      vertex -19.1353 33.7791 180
    endloop
  endfacet
  facet normal -0.671563 0.740947 0
    outer loop
      vertex -3.5477 59.7855 120
      vertex -6.81981 56.8198 180
      vertex -3.5477 59.7855 180
    endloop
  endfacet
  facet normal -0.671563 0.740947 0
    outer loop
      vertex -6.81981 56.8198 180
      vertex -3.5477 59.7855 120
      vertex -6.81981 56.8198 120
    endloop
  endfacet
  facet normal -0.941547 -0.336882 0
    outer loop
      vertex -16.5746 7.77925 120
      vertex -18.0623 11.9372 180
      vertex -18.0623 11.9372 120
    endloop
  endfacet
  facet normal -0.941547 -0.336882 0
    outer loop
      vertex -18.0623 11.9372 180
      vertex -16.5746 7.77925 120
      vertex -16.5746 7.77925 180
    endloop
  endfacet
  facet normal -0.857721 0.514116 0
    outer loop
      vertex -14.6865 46.2129 120
      vertex -12.4161 50.0007 180
      vertex -12.4161 50.0007 120
    endloop
  endfacet
  facet normal -0.857721 0.514116 0
    outer loop
      vertex -12.4161 50.0007 180
      vertex -14.6865 46.2129 120
      vertex -14.6865 46.2129 180
    endloop
  endfacet
  facet normal 0.903991 -0.427551 0
    outer loop
      vertex 64.6865 3.78715 180
      vertex 66.5746 7.77925 120
      vertex 66.5746 7.77925 180
    endloop
  endfacet
  facet normal 0.903991 -0.427551 0
    outer loop
      vertex 66.5746 7.77925 120
      vertex 64.6865 3.78715 180
      vertex 64.6865 3.78715 120
    endloop
  endfacet
  facet normal -0.336882 -0.941547 0
    outer loop
      vertex 7.77925 -16.5746 120
      vertex 11.9372 -18.0623 180
      vertex 7.77925 -16.5746 180
    endloop
  endfacet
  facet normal -0.336882 -0.941547 -0
    outer loop
      vertex 11.9372 -18.0623 180
      vertex 7.77925 -16.5746 120
      vertex 11.9372 -18.0623 120
    endloop
  endfacet
  facet normal 0.427551 -0.903991 0
    outer loop
      vertex 42.2208 -16.5746 120
      vertex 46.2129 -14.6865 180
      vertex 42.2208 -16.5746 180
    endloop
  endfacet
  facet normal 0.427551 -0.903991 0
    outer loop
      vertex 46.2129 -14.6865 180
      vertex 42.2208 -16.5746 120
      vertex 46.2129 -14.6865 120
    endloop
  endfacet
  facet normal 0.146736 0.989176 -0
    outer loop
      vertex 33.7791 69.1353 120
      vertex 29.4108 69.7833 180
      vertex 33.7791 69.1353 180
    endloop
  endfacet
  facet normal 0.146736 0.989176 0
    outer loop
      vertex 29.4108 69.7833 180
      vertex 33.7791 69.1353 120
      vertex 29.4108 69.7833 120
    endloop
  endfacet
  facet normal 0.998795 -0.0490702 0
    outer loop
      vertex 69.7833 20.5892 180
      vertex 70 25 120
      vertex 70 25 180
    endloop
  endfacet
  facet normal 0.998795 -0.0490702 0
    outer loop
      vertex 70 25 120
      vertex 69.7833 20.5892 180
      vertex 69.7833 20.5892 120
    endloop
  endfacet
  facet normal -0.514115 0.857721 0
    outer loop
      vertex 3.78715 64.6865 120
      vertex -0.000659943 62.4161 180
      vertex 3.78715 64.6865 180
    endloop
  endfacet
  facet normal -0.514115 0.857721 0
    outer loop
      vertex -0.000659943 62.4161 180
      vertex 3.78715 64.6865 120
      vertex -0.000659943 62.4161 120
    endloop
  endfacet
  facet normal 0.146736 -0.989176 0
    outer loop
      vertex 29.4108 -19.7833 120
      vertex 33.7791 -19.1353 180
      vertex 29.4108 -19.7833 180
    endloop
  endfacet
  facet normal 0.146736 -0.989176 0
    outer loop
      vertex 33.7791 -19.1353 180
      vertex 29.4108 -19.7833 120
      vertex 33.7791 -19.1353 120
    endloop
  endfacet
  facet normal -0.242978 -0.970032 0
    outer loop
      vertex 11.9372 -18.0623 120
      vertex 16.2209 -19.1353 180
      vertex 11.9372 -18.0623 180
    endloop
  endfacet
  facet normal -0.242978 -0.970032 -0
    outer loop
      vertex 16.2209 -19.1353 180
      vertex 11.9372 -18.0623 120
      vertex 16.2209 -19.1353 120
    endloop
  endfacet
  facet normal 0.857721 -0.514115 0
    outer loop
      vertex 62.4161 -0.000659943 180
      vertex 64.6865 3.78715 120
      vertex 64.6865 3.78715 180
    endloop
  endfacet
  facet normal 0.857721 -0.514115 0
    outer loop
      vertex 64.6865 3.78715 120
      vertex 62.4161 -0.000659943 180
      vertex 62.4161 -0.000659943 120
    endloop
  endfacet
  facet normal -0.740951 0.671559 0
    outer loop
      vertex -9.78547 53.5477 120
      vertex -6.81981 56.8198 180
      vertex -6.81981 56.8198 120
    endloop
  endfacet
  facet normal -0.740951 0.671559 0
    outer loop
      vertex -6.81981 56.8198 180
      vertex -9.78547 53.5477 120
      vertex -9.78547 53.5477 180
    endloop
  endfacet
  facet normal 0.941547 -0.336882 0
    outer loop
      vertex 66.5746 7.77925 180
      vertex 68.0623 11.9372 120
      vertex 68.0623 11.9372 180
    endloop
  endfacet
  facet normal 0.941547 -0.336882 0
    outer loop
      vertex 68.0623 11.9372 120
      vertex 66.5746 7.77925 180
      vertex 66.5746 7.77925 120
    endloop
  endfacet
  facet normal 0.941548 0.336879 0
    outer loop
      vertex 68.0623 38.0628 180
      vertex 66.5746 42.2208 120
      vertex 66.5746 42.2208 180
    endloop
  endfacet
  facet normal 0.941548 0.336879 0
    outer loop
      vertex 66.5746 42.2208 120
      vertex 68.0623 38.0628 180
      vertex 68.0623 38.0628 120
    endloop
  endfacet
  facet normal 0.514116 0.857721 -0
    outer loop
      vertex 50.0007 62.4161 120
      vertex 46.2129 64.6865 180
      vertex 50.0007 62.4161 180
    endloop
  endfacet
  facet normal 0.514116 0.857721 0
    outer loop
      vertex 46.2129 64.6865 180
      vertex 50.0007 62.4161 120
      vertex 46.2129 64.6865 120
    endloop
  endfacet
  facet normal -0.970032 -0.242978 0
    outer loop
      vertex -18.0623 11.9372 120
      vertex -19.1353 16.2209 180
      vertex -19.1353 16.2209 120
    endloop
  endfacet
  facet normal -0.970032 -0.242978 0
    outer loop
      vertex -19.1353 16.2209 180
      vertex -18.0623 11.9372 120
      vertex -18.0623 11.9372 180
    endloop
  endfacet
  facet normal 0.740947 -0.671563 0
    outer loop
      vertex 56.8198 -6.81981 180
      vertex 59.7855 -3.5477 120
      vertex 59.7855 -3.5477 180
    endloop
  endfacet
  facet normal 0.740947 -0.671563 0
    outer loop
      vertex 59.7855 -3.5477 120
      vertex 56.8198 -6.81981 180
      vertex 56.8198 -6.81981 120
    endloop
  endfacet
  facet normal -0.671558 -0.740952 0
    outer loop
      vertex -6.81981 -6.81981 120
      vertex -3.5477 -9.78547 180
      vertex -6.81981 -6.81981 180
    endloop
  endfacet
  facet normal -0.671558 -0.740952 -0
    outer loop
      vertex -3.5477 -9.78547 180
      vertex -6.81981 -6.81981 120
      vertex -3.5477 -9.78547 120
    endloop
  endfacet
  facet normal -0.989176 0.146736 0
    outer loop
      vertex -19.7833 29.4108 120
      vertex -19.1353 33.7791 180
      vertex -19.1353 33.7791 120
    endloop
  endfacet
  facet normal -0.989176 0.146736 0
    outer loop
      vertex -19.1353 33.7791 180
      vertex -19.7833 29.4108 120
      vertex -19.7833 29.4108 180
    endloop
  endfacet
  facet normal 0.903991 0.427551 0
    outer loop
      vertex 66.5746 42.2208 180
      vertex 64.6865 46.2129 120
      vertex 64.6865 46.2129 180
    endloop
  endfacet
  facet normal 0.903991 0.427551 0
    outer loop
      vertex 64.6865 46.2129 120
      vertex 66.5746 42.2208 180
      vertex 66.5746 42.2208 120
    endloop
  endfacet
  facet normal -0.427551 0.903991 0
    outer loop
      vertex 7.77925 66.5746 120
      vertex 3.78715 64.6865 180
      vertex 7.77925 66.5746 180
    endloop
  endfacet
  facet normal -0.427551 0.903991 0
    outer loop
      vertex 3.78715 64.6865 180
      vertex 7.77925 66.5746 120
      vertex 3.78715 64.6865 120
    endloop
  endfacet
  facet normal 0.803214 -0.59569 0
    outer loop
      vertex 59.7855 -3.5477 180
      vertex 62.4161 -0.000659943 120
      vertex 62.4161 -0.000659943 180
    endloop
  endfacet
  facet normal 0.803214 -0.59569 0
    outer loop
      vertex 62.4161 -0.000659943 120
      vertex 59.7855 -3.5477 180
      vertex 59.7855 -3.5477 120
    endloop
  endfacet
  facet normal -0.857721 -0.514115 0
    outer loop
      vertex -12.4161 -0.000659943 120
      vertex -14.6865 3.78715 180
      vertex -14.6865 3.78715 120
    endloop
  endfacet
  facet normal -0.857721 -0.514115 0
    outer loop
      vertex -14.6865 3.78715 180
      vertex -12.4161 -0.000659943 120
      vertex -12.4161 -0.000659943 180
    endloop
  endfacet
  facet normal -0.803211 -0.595694 0
    outer loop
      vertex -9.78547 -3.5477 120
      vertex -12.4161 -0.000659943 180
      vertex -12.4161 -0.000659943 120
    endloop
  endfacet
  facet normal -0.803211 -0.595694 0
    outer loop
      vertex -12.4161 -0.000659943 180
      vertex -9.78547 -3.5477 120
      vertex -9.78547 -3.5477 180
    endloop
  endfacet
  facet normal -0.903991 0.427551 0
    outer loop
      vertex -16.5746 42.2208 120
      vertex -14.6865 46.2129 180
      vertex -14.6865 46.2129 120
    endloop
  endfacet
  facet normal -0.903991 0.427551 0
    outer loop
      vertex -14.6865 46.2129 180
      vertex -16.5746 42.2208 120
      vertex -16.5746 42.2208 180
    endloop
  endfacet
  facet normal -0.427551 -0.903991 0
    outer loop
      vertex 3.78715 -14.6865 120
      vertex 7.77925 -16.5746 180
      vertex 3.78715 -14.6865 180
    endloop
  endfacet
  facet normal -0.427551 -0.903991 -0
    outer loop
      vertex 7.77925 -16.5746 180
      vertex 3.78715 -14.6865 120
      vertex 7.77925 -16.5746 120
    endloop
  endfacet
  facet normal 0.595699 -0.803208 0
    outer loop
      vertex 50.0007 -12.4161 120
      vertex 53.5477 -9.78547 180
      vertex 50.0007 -12.4161 180
    endloop
  endfacet
  facet normal 0.595699 -0.803208 0
    outer loop
      vertex 53.5477 -9.78547 180
      vertex 50.0007 -12.4161 120
      vertex 53.5477 -9.78547 120
    endloop
  endfacet
  facet normal -0.146736 0.989176 0
    outer loop
      vertex 20.5892 69.7833 120
      vertex 16.2209 69.1353 180
      vertex 20.5892 69.7833 180
    endloop
  endfacet
  facet normal -0.146736 0.989176 0
    outer loop
      vertex 16.2209 69.1353 180
      vertex 20.5892 69.7833 120
      vertex 16.2209 69.1353 120
    endloop
  endfacet
  facet normal -0.989176 -0.146736 0
    outer loop
      vertex -19.1353 16.2209 120
      vertex -19.7833 20.5892 180
      vertex -19.7833 20.5892 120
    endloop
  endfacet
  facet normal -0.989176 -0.146736 0
    outer loop
      vertex -19.7833 20.5892 180
      vertex -19.1353 16.2209 120
      vertex -19.1353 16.2209 180
    endloop
  endfacet
  facet normal 0.336879 -0.941548 0
    outer loop
      vertex 38.0628 -18.0623 120
      vertex 42.2208 -16.5746 180
      vertex 38.0628 -18.0623 180
    endloop
  endfacet
  facet normal 0.336879 -0.941548 0
    outer loop
      vertex 42.2208 -16.5746 180
      vertex 38.0628 -18.0623 120
      vertex 42.2208 -16.5746 120
    endloop
  endfacet
  facet normal 0.242978 -0.970032 0
    outer loop
      vertex 33.7791 -19.1353 120
      vertex 38.0628 -18.0623 180
      vertex 33.7791 -19.1353 180
    endloop
  endfacet
  facet normal 0.242978 -0.970032 0
    outer loop
      vertex 38.0628 -18.0623 180
      vertex 33.7791 -19.1353 120
      vertex 38.0628 -18.0623 120
    endloop
  endfacet
  facet normal -0.903991 -0.427551 0
    outer loop
      vertex -14.6865 3.78715 120
      vertex -16.5746 7.77925 180
      vertex -16.5746 7.77925 120
    endloop
  endfacet
  facet normal -0.903991 -0.427551 0
    outer loop
      vertex -16.5746 7.77925 180
      vertex -14.6865 3.78715 120
      vertex -14.6865 3.78715 180
    endloop
  endfacet
  facet normal -0.740952 -0.671558 0
    outer loop
      vertex -6.81981 -6.81981 120
      vertex -9.78547 -3.5477 180
      vertex -9.78547 -3.5477 120
    endloop
  endfacet
  facet normal -0.740952 -0.671558 0
    outer loop
      vertex -9.78547 -3.5477 180
      vertex -6.81981 -6.81981 120
      vertex -6.81981 -6.81981 180
    endloop
  endfacet
  facet normal -0.595694 -0.803211 0
    outer loop
      vertex -3.5477 -9.78547 120
      vertex -0.000659943 -12.4161 180
      vertex -3.5477 -9.78547 180
    endloop
  endfacet
  facet normal -0.595694 -0.803211 -0
    outer loop
      vertex -0.000659943 -12.4161 180
      vertex -3.5477 -9.78547 120
      vertex -0.000659943 -12.4161 120
    endloop
  endfacet
  facet normal -0.0490702 -0.998795 0
    outer loop
      vertex 20.5892 -19.7833 120
      vertex 25 -20 180
      vertex 20.5892 -19.7833 180
    endloop
  endfacet
  facet normal -0.0490702 -0.998795 -0
    outer loop
      vertex 25 -20 180
      vertex 20.5892 -19.7833 120
      vertex 25 -20 120
    endloop
  endfacet
  facet normal 0 0 1
    outer loop
      vertex 65 25 180
      vertex 70 25 180
      vertex 69.7833 29.4108 180
    endloop
  endfacet
  facet normal 0 0 1
    outer loop
      vertex 64.8074 28.9207 180
      vertex 69.7833 29.4108 180
      vertex 69.1353 33.7791 180
    endloop
  endfacet
  facet normal 0 0 1
    outer loop
      vertex 70 25 180
      vertex 65 25 180
      vertex 69.7833 20.5892 180
    endloop
  endfacet
  facet normal 0 0 1
    outer loop
      vertex 64.2314 32.8036 180
      vertex 69.1353 33.7791 180
      vertex 68.0623 38.0628 180
    endloop
  endfacet
  facet normal -0 0 1
    outer loop
      vertex 64.8074 21.0793 180
      vertex 69.7833 20.5892 180
      vertex 65 25 180
    endloop
  endfacet
  facet normal 0 0 1
    outer loop
      vertex 63.2776 36.6114 180
      vertex 68.0623 38.0628 180
      vertex 66.5746 42.2208 180
    endloop
  endfacet
  facet normal 0 0 1
    outer loop
      vertex 69.7833 20.5892 180
      vertex 64.8074 21.0793 180
      vertex 69.1353 16.2209 180
    endloop
  endfacet
  facet normal -0 0 1
    outer loop
      vertex 64.2314 17.1964 180
      vertex 69.1353 16.2209 180
      vertex 64.8074 21.0793 180
    endloop
  endfacet
  facet normal 0 0 1
    outer loop
      vertex 69.7833 29.4108 180
      vertex 64.8074 28.9207 180
      vertex 65 25 180
    endloop
  endfacet
  facet normal 0 0 1
    outer loop
      vertex 61.9552 40.3073 180
      vertex 66.5746 42.2208 180
      vertex 64.6865 46.2129 180
    endloop
  endfacet
  facet normal 0 0 1
    outer loop
      vertex 69.1353 33.7791 180
      vertex 64.2314 32.8036 180
      vertex 64.8074 28.9207 180
    endloop
  endfacet
  facet normal 0 0 1
    outer loop
      vertex 68.0623 38.0628 180
      vertex 63.2776 36.6114 180
      vertex 64.2314 32.8036 180
    endloop
  endfacet
  facet normal 0 0 1
    outer loop
      vertex 60.2768 43.8559 180
      vertex 64.6865 46.2129 180
      vertex 62.4161 50.0007 180
    endloop
  endfacet
  facet normal 0 0 1
    outer loop
      vertex 66.5746 42.2208 180
      vertex 61.9552 40.3073 180
      vertex 63.2776 36.6114 180
    endloop
  endfacet
  facet normal 0 0 1
    outer loop
      vertex 64.6865 46.2129 180
      vertex 60.2768 43.8559 180
      vertex 61.9552 40.3073 180
    endloop
  endfacet
  facet normal 0 0 1
    outer loop
      vertex 58.2588 47.2228 180
      vertex 62.4161 50.0007 180
      vertex 59.7855 53.5477 180
    endloop
  endfacet
  facet normal 0 0 1
    outer loop
      vertex 62.4161 50.0007 180
      vertex 58.2588 47.2228 180
      vertex 60.2768 43.8559 180
    endloop
  endfacet
  facet normal 0 0 1
    outer loop
      vertex 55.9204 50.3757 180
      vertex 59.7855 53.5477 180
      vertex 56.8198 56.8198 180
    endloop
  endfacet
  facet normal 0 0 1
    outer loop
      vertex 59.7855 53.5477 180
      vertex 55.9204 50.3757 180
      vertex 58.2588 47.2228 180
    endloop
  endfacet
  facet normal 0 0 1
    outer loop
      vertex 53.2843 53.2843 180
      vertex 56.8198 56.8198 180
      vertex 53.5477 59.7855 180
    endloop
  endfacet
  facet normal 0 0 1
    outer loop
      vertex 56.8198 56.8198 180
      vertex 53.2843 53.2843 180
      vertex 55.9204 50.3757 180
    endloop
  endfacet
  facet normal 0 0 1
    outer loop
      vertex 53.5477 59.7855 180
      vertex 50.3757 55.9204 180
      vertex 53.2843 53.2843 180
    endloop
  endfacet
  facet normal 0 0 1
    outer loop
      vertex 50.0007 62.4161 180
      vertex 50.3757 55.9204 180
      vertex 53.5477 59.7855 180
    endloop
  endfacet
  facet normal 0 0 1
    outer loop
      vertex 50.0007 62.4161 180
      vertex 47.2228 58.2588 180
      vertex 50.3757 55.9204 180
    endloop
  endfacet
  facet normal 0 0 1
    outer loop
      vertex 46.2129 64.6865 180
      vertex 47.2228 58.2588 180
      vertex 50.0007 62.4161 180
    endloop
  endfacet
  facet normal 0 0 1
    outer loop
      vertex 46.2129 64.6865 180
      vertex 43.8559 60.2768 180
      vertex 47.2228 58.2588 180
    endloop
  endfacet
  facet normal 0 0 1
    outer loop
      vertex 42.2208 66.5746 180
      vertex 43.8559 60.2768 180
      vertex 46.2129 64.6865 180
    endloop
  endfacet
  facet normal 0 0 1
    outer loop
      vertex 42.2208 66.5746 180
      vertex 40.3073 61.9552 180
      vertex 43.8559 60.2768 180
    endloop
  endfacet
  facet normal 0 0 1
    outer loop
      vertex 38.0628 68.0623 180
      vertex 40.3073 61.9552 180
      vertex 42.2208 66.5746 180
    endloop
  endfacet
  facet normal 0 0 1
    outer loop
      vertex 38.0628 68.0623 180
      vertex 36.6114 63.2776 180
      vertex 40.3073 61.9552 180
    endloop
  endfacet
  facet normal 0 0 1
    outer loop
      vertex 33.7791 69.1353 180
      vertex 36.6114 63.2776 180
      vertex 38.0628 68.0623 180
    endloop
  endfacet
  facet normal 0 0 1
    outer loop
      vertex 33.7791 69.1353 180
      vertex 32.8036 64.2314 180
      vertex 36.6114 63.2776 180
    endloop
  endfacet
  facet normal 0 0 1
    outer loop
      vertex 29.4108 69.7833 180
      vertex 32.8036 64.2314 180
      vertex 33.7791 69.1353 180
    endloop
  endfacet
  facet normal 0 0 1
    outer loop
      vertex 29.4108 69.7833 180
      vertex 28.9207 64.8074 180
      vertex 32.8036 64.2314 180
    endloop
  endfacet
  facet normal 0 0 1
    outer loop
      vertex 25 70 180
      vertex 28.9207 64.8074 180
      vertex 29.4108 69.7833 180
    endloop
  endfacet
  facet normal 0 0 1
    outer loop
      vertex 25 70 180
      vertex 25 65 180
      vertex 28.9207 64.8074 180
    endloop
  endfacet
  facet normal 0 0 1
    outer loop
      vertex 25 70 180
      vertex 21.0793 64.8074 180
      vertex 25 65 180
    endloop
  endfacet
  facet normal -0 0 1
    outer loop
      vertex 20.5892 69.7833 180
      vertex 21.0793 64.8074 180
      vertex 25 70 180
    endloop
  endfacet
  facet normal 0 0 1
    outer loop
      vertex 20.5892 69.7833 180
      vertex 17.1964 64.2314 180
      vertex 21.0793 64.8074 180
    endloop
  endfacet
  facet normal -0 0 1
    outer loop
      vertex 16.2209 69.1353 180
      vertex 17.1964 64.2314 180
      vertex 20.5892 69.7833 180
    endloop
  endfacet
  facet normal 0 0 1
    outer loop
      vertex 16.2209 69.1353 180
      vertex 13.3886 63.2776 180
      vertex 17.1964 64.2314 180
    endloop
  endfacet
  facet normal -0 0 1
    outer loop
      vertex 11.9372 68.0623 180
      vertex 13.3886 63.2776 180
      vertex 16.2209 69.1353 180
    endloop
  endfacet
  facet normal 0 0 1
    outer loop
      vertex 11.9372 68.0623 180
      vertex 9.69266 61.9552 180
      vertex 13.3886 63.2776 180
    endloop
  endfacet
  facet normal -0 0 1
    outer loop
      vertex 7.77925 66.5746 180
      vertex 9.69266 61.9552 180
      vertex 11.9372 68.0623 180
    endloop
  endfacet
  facet normal 0 0 1
    outer loop
      vertex 7.77925 66.5746 180
      vertex 6.14413 60.2768 180
      vertex 9.69266 61.9552 180
    endloop
  endfacet
  facet normal -0 0 1
    outer loop
      vertex 3.78715 64.6865 180
      vertex 6.14413 60.2768 180
      vertex 7.77925 66.5746 180
    endloop
  endfacet
  facet normal 0 0 1
    outer loop
      vertex 3.78715 64.6865 180
      vertex 2.77719 58.2588 180
      vertex 6.14413 60.2768 180
    endloop
  endfacet
  facet normal -0 0 1
    outer loop
      vertex -0.000659943 62.4161 180
      vertex 2.77719 58.2588 180
      vertex 3.78715 64.6865 180
    endloop
  endfacet
  facet normal 0 0 1
    outer loop
      vertex -0.000659943 62.4161 180
      vertex -0.375731 55.9204 180
      vertex 2.77719 58.2588 180
    endloop
  endfacet
  facet normal -0 0 1
    outer loop
      vertex -3.5477 59.7855 180
      vertex -0.375731 55.9204 180
      vertex -0.000659943 62.4161 180
    endloop
  endfacet
  facet normal 0 0 1
    outer loop
      vertex -0.375731 55.9204 180
      vertex -3.5477 59.7855 180
      vertex -3.28427 53.2843 180
    endloop
  endfacet
  facet normal -0 0 1
    outer loop
      vertex -6.81981 56.8198 180
      vertex -3.28427 53.2843 180
      vertex -3.5477 59.7855 180
    endloop
  endfacet
  facet normal 0 0 1
    outer loop
      vertex -3.28427 53.2843 180
      vertex -6.81981 56.8198 180
      vertex -5.92042 50.3757 180
    endloop
  endfacet
  facet normal -0 0 1
    outer loop
      vertex -9.78547 53.5477 180
      vertex -5.92042 50.3757 180
      vertex -6.81981 56.8198 180
    endloop
  endfacet
  facet normal 0 0 1
    outer loop
      vertex -5.92042 50.3757 180
      vertex -9.78547 53.5477 180
      vertex -8.25878 47.2228 180
    endloop
  endfacet
  facet normal -0 0 1
    outer loop
      vertex -12.4161 50.0007 180
      vertex -8.25878 47.2228 180
      vertex -9.78547 53.5477 180
    endloop
  endfacet
  facet normal 0 0 1
    outer loop
      vertex -8.25878 47.2228 180
      vertex -12.4161 50.0007 180
      vertex -10.2768 43.8559 180
    endloop
  endfacet
  facet normal -0 0 1
    outer loop
      vertex -14.6865 46.2129 180
      vertex -10.2768 43.8559 180
      vertex -12.4161 50.0007 180
    endloop
  endfacet
  facet normal 0 0 1
    outer loop
      vertex -10.2768 43.8559 180
      vertex -14.6865 46.2129 180
      vertex -11.9552 40.3073 180
    endloop
  endfacet
  facet normal -0 0 1
    outer loop
      vertex -16.5746 42.2208 180
      vertex -11.9552 40.3073 180
      vertex -14.6865 46.2129 180
    endloop
  endfacet
  facet normal 0 0 1
    outer loop
      vertex -11.9552 40.3073 180
      vertex -16.5746 42.2208 180
      vertex -13.2776 36.6114 180
    endloop
  endfacet
  facet normal -0 0 1
    outer loop
      vertex -18.0623 38.0628 180
      vertex -13.2776 36.6114 180
      vertex -16.5746 42.2208 180
    endloop
  endfacet
  facet normal 0 0 1
    outer loop
      vertex -13.2776 36.6114 180
      vertex -18.0623 38.0628 180
      vertex -14.2314 32.8036 180
    endloop
  endfacet
  facet normal -0 0 1
    outer loop
      vertex -19.1353 33.7791 180
      vertex -14.2314 32.8036 180
      vertex -18.0623 38.0628 180
    endloop
  endfacet
  facet normal 0 0 1
    outer loop
      vertex 69.1353 16.2209 180
      vertex 64.2314 17.1964 180
      vertex 68.0623 11.9372 180
    endloop
  endfacet
  facet normal -0 0 1
    outer loop
      vertex 63.2776 13.3886 180
      vertex 68.0623 11.9372 180
      vertex 64.2314 17.1964 180
    endloop
  endfacet
  facet normal 0 0 1
    outer loop
      vertex 68.0623 11.9372 180
      vertex 63.2776 13.3886 180
      vertex 66.5746 7.77925 180
    endloop
  endfacet
  facet normal -0 0 1
    outer loop
      vertex 61.9552 9.69266 180
      vertex 66.5746 7.77925 180
      vertex 63.2776 13.3886 180
    endloop
  endfacet
  facet normal 0 0 1
    outer loop
      vertex 66.5746 7.77925 180
      vertex 61.9552 9.69266 180
      vertex 64.6865 3.78715 180
    endloop
  endfacet
  facet normal -0 0 1
    outer loop
      vertex 60.2768 6.14413 180
      vertex 64.6865 3.78715 180
      vertex 61.9552 9.69266 180
    endloop
  endfacet
  facet normal 0 0 1
    outer loop
      vertex 64.6865 3.78715 180
      vertex 60.2768 6.14413 180
      vertex 62.4161 -0.000659943 180
    endloop
  endfacet
  facet normal -0 0 1
    outer loop
      vertex 58.2588 2.77719 180
      vertex 62.4161 -0.000659943 180
      vertex 60.2768 6.14413 180
    endloop
  endfacet
  facet normal 0 0 1
    outer loop
      vertex 62.4161 -0.000659943 180
      vertex 58.2588 2.77719 180
      vertex 59.7855 -3.5477 180
    endloop
  endfacet
  facet normal -0 0 1
    outer loop
      vertex 55.9204 -0.375731 180
      vertex 59.7855 -3.5477 180
      vertex 58.2588 2.77719 180
    endloop
  endfacet
  facet normal 0 0 1
    outer loop
      vertex 59.7855 -3.5477 180
      vertex 55.9204 -0.375731 180
      vertex 56.8198 -6.81981 180
    endloop
  endfacet
  facet normal -0 0 1
    outer loop
      vertex 53.2843 -3.28427 180
      vertex 56.8198 -6.81981 180
      vertex 55.9204 -0.375731 180
    endloop
  endfacet
  facet normal 0 0 1
    outer loop
      vertex 56.8198 -6.81981 180
      vertex 53.2843 -3.28427 180
      vertex 53.5477 -9.78547 180
    endloop
  endfacet
  facet normal -0 0 1
    outer loop
      vertex 50.3757 -5.92042 180
      vertex 53.5477 -9.78547 180
      vertex 53.2843 -3.28427 180
    endloop
  endfacet
  facet normal 0 0 1
    outer loop
      vertex 50.3757 -5.92042 180
      vertex 50.0007 -12.4161 180
      vertex 53.5477 -9.78547 180
    endloop
  endfacet
  facet normal -0 0 1
    outer loop
      vertex 47.2228 -8.25878 180
      vertex 50.0007 -12.4161 180
      vertex 50.3757 -5.92042 180
    endloop
  endfacet
  facet normal 0 0 1
    outer loop
      vertex 47.2228 -8.25878 180
      vertex 46.2129 -14.6865 180
      vertex 50.0007 -12.4161 180
    endloop
  endfacet
  facet normal -0 0 1
    outer loop
      vertex 43.8559 -10.2768 180
      vertex 46.2129 -14.6865 180
      vertex 47.2228 -8.25878 180
    endloop
  endfacet
  facet normal 0 0 1
    outer loop
      vertex 43.8559 -10.2768 180
      vertex 42.2208 -16.5746 180
      vertex 46.2129 -14.6865 180
    endloop
  endfacet
  facet normal -0 0 1
    outer loop
      vertex 40.3073 -11.9552 180
      vertex 42.2208 -16.5746 180
      vertex 43.8559 -10.2768 180
    endloop
  endfacet
  facet normal 0 0 1
    outer loop
      vertex 40.3073 -11.9552 180
      vertex 38.0628 -18.0623 180
      vertex 42.2208 -16.5746 180
    endloop
  endfacet
  facet normal -0 0 1
    outer loop
      vertex 36.6114 -13.2776 180
      vertex 38.0628 -18.0623 180
      vertex 40.3073 -11.9552 180
    endloop
  endfacet
  facet normal 0 0 1
    outer loop
      vertex 36.6114 -13.2776 180
      vertex 33.7791 -19.1353 180
      vertex 38.0628 -18.0623 180
    endloop
  endfacet
  facet normal -0 0 1
    outer loop
      vertex 32.8036 -14.2314 180
      vertex 33.7791 -19.1353 180
      vertex 36.6114 -13.2776 180
    endloop
  endfacet
  facet normal 0 0 1
    outer loop
      vertex 32.8036 -14.2314 180
      vertex 29.4108 -19.7833 180
      vertex 33.7791 -19.1353 180
    endloop
  endfacet
  facet normal -0 0 1
    outer loop
      vertex 28.9207 -14.8074 180
      vertex 29.4108 -19.7833 180
      vertex 32.8036 -14.2314 180
    endloop
  endfacet
  facet normal -0 0 1
    outer loop
      vertex 25 -15 180
      vertex 29.4108 -19.7833 180
      vertex 28.9207 -14.8074 180
    endloop
  endfacet
  facet normal 0 0 1
    outer loop
      vertex 25 -15 180
      vertex 25 -20 180
      vertex 29.4108 -19.7833 180
    endloop
  endfacet
  facet normal 0 0 1
    outer loop
      vertex 21.0793 -14.8074 180
      vertex 25 -20 180
      vertex 25 -15 180
    endloop
  endfacet
  facet normal 0 0 1
    outer loop
      vertex 21.0793 -14.8074 180
      vertex 20.5892 -19.7833 180
      vertex 25 -20 180
    endloop
  endfacet
  facet normal 0 0 1
    outer loop
      vertex 17.1964 -14.2314 180
      vertex 20.5892 -19.7833 180
      vertex 21.0793 -14.8074 180
    endloop
  endfacet
  facet normal 0 0 1
    outer loop
      vertex 17.1964 -14.2314 180
      vertex 16.2209 -19.1353 180
      vertex 20.5892 -19.7833 180
    endloop
  endfacet
  facet normal 0 0 1
    outer loop
      vertex 13.3886 -13.2776 180
      vertex 16.2209 -19.1353 180
      vertex 17.1964 -14.2314 180
    endloop
  endfacet
  facet normal 0 0 1
    outer loop
      vertex 13.3886 -13.2776 180
      vertex 11.9372 -18.0623 180
      vertex 16.2209 -19.1353 180
    endloop
  endfacet
  facet normal 0 0 1
    outer loop
      vertex 9.69266 -11.9552 180
      vertex 11.9372 -18.0623 180
      vertex 13.3886 -13.2776 180
    endloop
  endfacet
  facet normal 0 0 1
    outer loop
      vertex 9.69266 -11.9552 180
      vertex 7.77925 -16.5746 180
      vertex 11.9372 -18.0623 180
    endloop
  endfacet
  facet normal 0 0 1
    outer loop
      vertex 6.14413 -10.2768 180
      vertex 7.77925 -16.5746 180
      vertex 9.69266 -11.9552 180
    endloop
  endfacet
  facet normal 0 0 1
    outer loop
      vertex 6.14413 -10.2768 180
      vertex 3.78715 -14.6865 180
      vertex 7.77925 -16.5746 180
    endloop
  endfacet
  facet normal 0 0 1
    outer loop
      vertex 2.77719 -8.25878 180
      vertex 3.78715 -14.6865 180
      vertex 6.14413 -10.2768 180
    endloop
  endfacet
  facet normal 0 0 1
    outer loop
      vertex 2.77719 -8.25878 180
      vertex -0.000659943 -12.4161 180
      vertex 3.78715 -14.6865 180
    endloop
  endfacet
  facet normal 0 0 1
    outer loop
      vertex -0.375731 -5.92042 180
      vertex -0.000659943 -12.4161 180
      vertex 2.77719 -8.25878 180
    endloop
  endfacet
  facet normal 0 0 1
    outer loop
      vertex -3.5477 -9.78547 180
      vertex -0.375731 -5.92042 180
      vertex -3.28427 -3.28427 180
    endloop
  endfacet
  facet normal 0 0 1
    outer loop
      vertex -0.375731 -5.92042 180
      vertex -3.5477 -9.78547 180
      vertex -0.000659943 -12.4161 180
    endloop
  endfacet
  facet normal 0 0 1
    outer loop
      vertex -6.81981 -6.81981 180
      vertex -3.28427 -3.28427 180
      vertex -5.92042 -0.375731 180
    endloop
  endfacet
  facet normal 0 0 1
    outer loop
      vertex -3.28427 -3.28427 180
      vertex -6.81981 -6.81981 180
      vertex -3.5477 -9.78547 180
    endloop
  endfacet
  facet normal 0 0 1
    outer loop
      vertex -9.78547 -3.5477 180
      vertex -5.92042 -0.375731 180
      vertex -8.25878 2.77719 180
    endloop
  endfacet
  facet normal 0 0 1
    outer loop
      vertex -5.92042 -0.375731 180
      vertex -9.78547 -3.5477 180
      vertex -6.81981 -6.81981 180
    endloop
  endfacet
  facet normal 0 0 1
    outer loop
      vertex -12.4161 -0.000659943 180
      vertex -8.25878 2.77719 180
      vertex -10.2768 6.14413 180
    endloop
  endfacet
  facet normal 0 0 1
    outer loop
      vertex -14.6865 3.78715 180
      vertex -10.2768 6.14413 180
      vertex -11.9552 9.69266 180
    endloop
  endfacet
  facet normal 0 0 1
    outer loop
      vertex -8.25878 2.77719 180
      vertex -12.4161 -0.000659943 180
      vertex -9.78547 -3.5477 180
    endloop
  endfacet
  facet normal 0 0 1
    outer loop
      vertex -16.5746 7.77925 180
      vertex -11.9552 9.69266 180
      vertex -13.2776 13.3886 180
    endloop
  endfacet
  facet normal 0 0 1
    outer loop
      vertex -18.0623 11.9372 180
      vertex -13.2776 13.3886 180
      vertex -14.2314 17.1964 180
    endloop
  endfacet
  facet normal 0 0 1
    outer loop
      vertex -10.2768 6.14413 180
      vertex -14.6865 3.78715 180
      vertex -12.4161 -0.000659943 180
    endloop
  endfacet
  facet normal 0 0 1
    outer loop
      vertex -19.1353 16.2209 180
      vertex -14.2314 17.1964 180
      vertex -14.8074 21.0793 180
    endloop
  endfacet
  facet normal 0 0 1
    outer loop
      vertex -19.7833 20.5892 180
      vertex -14.8074 21.0793 180
      vertex -15 25 180
    endloop
  endfacet
  facet normal 0 0 1
    outer loop
      vertex -14.2314 32.8036 180
      vertex -19.1353 33.7791 180
      vertex -14.8074 28.9207 180
    endloop
  endfacet
  facet normal 0 0 1
    outer loop
      vertex -11.9552 9.69266 180
      vertex -16.5746 7.77925 180
      vertex -14.6865 3.78715 180
    endloop
  endfacet
  facet normal -0 0 1
    outer loop
      vertex -19.7833 29.4108 180
      vertex -14.8074 28.9207 180
      vertex -19.1353 33.7791 180
    endloop
  endfacet
  facet normal 0 0 1
    outer loop
      vertex -13.2776 13.3886 180
      vertex -18.0623 11.9372 180
      vertex -16.5746 7.77925 180
    endloop
  endfacet
  facet normal 0 0 1
    outer loop
      vertex -14.8074 28.9207 180
      vertex -19.7833 29.4108 180
      vertex -15 25 180
    endloop
  endfacet
  facet normal 0 0 1
    outer loop
      vertex -14.2314 17.1964 180
      vertex -19.1353 16.2209 180
      vertex -18.0623 11.9372 180
    endloop
  endfacet
  facet normal 0 0 1
    outer loop
      vertex -20 25 180
      vertex -15 25 180
      vertex -19.7833 29.4108 180
    endloop
  endfacet
  facet normal 0 0 1
    outer loop
      vertex -14.8074 21.0793 180
      vertex -19.7833 20.5892 180
      vertex -19.1353 16.2209 180
    endloop
  endfacet
  facet normal 0 0 1
    outer loop
      vertex -15 25 180
      vertex -20 25 180
      vertex -19.7833 20.5892 180
    endloop
  endfacet
  facet normal -0.998795 0.0490702 0
    outer loop
      vertex -20 25 120
      vertex -19.7833 29.4108 180
      vertex -19.7833 29.4108 120
    endloop
  endfacet
  facet normal -0.998795 0.0490702 0
    outer loop
      vertex -19.7833 29.4108 180
      vertex -20 25 120
      vertex -20 25 180
    endloop
  endfacet
  facet normal 0.671559 -0.740951 0
    outer loop
      vertex 53.5477 -9.78547 120
      vertex 56.8198 -6.81981 180
      vertex 53.5477 -9.78547 180
    endloop
  endfacet
  facet normal 0.671559 -0.740951 0
    outer loop
      vertex 56.8198 -6.81981 180
      vertex 53.5477 -9.78547 120
      vertex 56.8198 -6.81981 120
    endloop
  endfacet
  facet normal 0.67156 0.740951 -0
    outer loop
      vertex -0.375731 -5.92042 123
      vertex -3.28427 -3.28427 180
      vertex -0.375731 -5.92042 180
    endloop
  endfacet
  facet normal 0.67156 0.740951 0
    outer loop
      vertex -3.28427 -3.28427 180
      vertex -0.375731 -5.92042 123
      vertex -3.28427 -3.28427 123
    endloop
  endfacet
  facet normal 0.941545 -0.336887 0
    outer loop
      vertex -13.2776 36.6114 180
      vertex -11.9552 40.3073 123
      vertex -11.9552 40.3073 180
    endloop
  endfacet
  facet normal 0.941545 -0.336887 0
    outer loop
      vertex -11.9552 40.3073 123
      vertex -13.2776 36.6114 180
      vertex -13.2776 36.6114 123
    endloop
  endfacet
  facet normal -0.989176 -0.146737 0
    outer loop
      vertex 64.8074 28.9207 123
      vertex 64.2314 32.8036 180
      vertex 64.2314 32.8036 123
    endloop
  endfacet
  facet normal -0.989176 -0.146737 0
    outer loop
      vertex 64.2314 32.8036 180
      vertex 64.8074 28.9207 123
      vertex 64.8074 28.9207 180
    endloop
  endfacet
  facet normal -0.998796 -0.0490647 0
    outer loop
      vertex 65 25 123
      vertex 64.8074 28.9207 180
      vertex 64.8074 28.9207 123
    endloop
  endfacet
  facet normal -0.998796 -0.0490647 0
    outer loop
      vertex 64.8074 28.9207 180
      vertex 65 25 123
      vertex 65 25 180
    endloop
  endfacet
  facet normal 0.514094 0.857734 -0
    outer loop
      vertex 6.14413 -10.2768 123
      vertex 2.77719 -8.25878 180
      vertex 6.14413 -10.2768 180
    endloop
  endfacet
  facet normal 0.514094 0.857734 0
    outer loop
      vertex 2.77719 -8.25878 180
      vertex 6.14413 -10.2768 123
      vertex 2.77719 -8.25878 123
    endloop
  endfacet
  facet normal -0.671545 -0.740964 0
    outer loop
      vertex 50.3757 55.9204 123
      vertex 53.2843 53.2843 180
      vertex 50.3757 55.9204 180
    endloop
  endfacet
  facet normal -0.671545 -0.740964 -0
    outer loop
      vertex 53.2843 53.2843 180
      vertex 50.3757 55.9204 123
      vertex 53.2843 53.2843 123
    endloop
  endfacet
  facet normal 0.146737 0.989176 -0
    outer loop
      vertex 21.0793 -14.8074 123
      vertex 17.1964 -14.2314 180
      vertex 21.0793 -14.8074 180
    endloop
  endfacet
  facet normal 0.146737 0.989176 0
    outer loop
      vertex 17.1964 -14.2314 180
      vertex 21.0793 -14.8074 123
      vertex 17.1964 -14.2314 123
    endloop
  endfacet
  facet normal -0.740964 -0.671545 0
    outer loop
      vertex 55.9204 50.3757 123
      vertex 53.2843 53.2843 180
      vertex 53.2843 53.2843 123
    endloop
  endfacet
  facet normal -0.740964 -0.671545 0
    outer loop
      vertex 53.2843 53.2843 180
      vertex 55.9204 50.3757 123
      vertex 55.9204 50.3757 180
    endloop
  endfacet
  facet normal -0.427563 -0.903986 0
    outer loop
      vertex 40.3073 61.9552 123
      vertex 43.8559 60.2768 180
      vertex 40.3073 61.9552 180
    endloop
  endfacet
  facet normal -0.427563 -0.903986 -0
    outer loop
      vertex 43.8559 60.2768 180
      vertex 40.3073 61.9552 123
      vertex 43.8559 60.2768 123
    endloop
  endfacet
  facet normal -0.0490647 0.998796 0
    outer loop
      vertex 28.9207 -14.8074 123
      vertex 25 -15 180
      vertex 28.9207 -14.8074 180
    endloop
  endfacet
  facet normal -0.0490647 0.998796 0
    outer loop
      vertex 25 -15 180
      vertex 28.9207 -14.8074 123
      vertex 25 -15 123
    endloop
  endfacet
  facet normal 0.740958 -0.671552 0
    outer loop
      vertex -5.92042 50.3757 180
      vertex -3.28427 53.2843 123
      vertex -3.28427 53.2843 180
    endloop
  endfacet
  facet normal 0.740958 -0.671552 0
    outer loop
      vertex -3.28427 53.2843 123
      vertex -5.92042 50.3757 180
      vertex -5.92042 50.3757 123
    endloop
  endfacet
  facet normal -0.989176 0.146737 0
    outer loop
      vertex 64.2314 17.1964 123
      vertex 64.8074 21.0793 180
      vertex 64.8074 21.0793 123
    endloop
  endfacet
  facet normal -0.989176 0.146737 0
    outer loop
      vertex 64.8074 21.0793 180
      vertex 64.2314 17.1964 123
      vertex 64.2314 17.1964 180
    endloop
  endfacet
  facet normal -0.903986 -0.427563 0
    outer loop
      vertex 61.9552 40.3073 123
      vertex 60.2768 43.8559 180
      vertex 60.2768 43.8559 123
    endloop
  endfacet
  facet normal -0.903986 -0.427563 0
    outer loop
      vertex 60.2768 43.8559 180
      vertex 61.9552 40.3073 123
      vertex 61.9552 40.3073 180
    endloop
  endfacet
  facet normal 0.242979 -0.970032 0
    outer loop
      vertex 13.3886 63.2776 123
      vertex 17.1964 64.2314 180
      vertex 13.3886 63.2776 180
    endloop
  endfacet
  facet normal 0.242979 -0.970032 0
    outer loop
      vertex 17.1964 64.2314 180
      vertex 13.3886 63.2776 123
      vertex 17.1964 64.2314 123
    endloop
  endfacet
  facet normal 0.803206 -0.595701 0
    outer loop
      vertex -8.25878 47.2228 180
      vertex -5.92042 50.3757 123
      vertex -5.92042 50.3757 180
    endloop
  endfacet
  facet normal 0.803206 -0.595701 0
    outer loop
      vertex -5.92042 50.3757 123
      vertex -8.25878 47.2228 180
      vertex -8.25878 47.2228 123
    endloop
  endfacet
  facet normal -0.242979 -0.970032 0
    outer loop
      vertex 32.8036 64.2314 123
      vertex 36.6114 63.2776 180
      vertex 32.8036 64.2314 180
    endloop
  endfacet
  facet normal -0.242979 -0.970032 -0
    outer loop
      vertex 36.6114 63.2776 180
      vertex 32.8036 64.2314 123
      vertex 36.6114 63.2776 123
    endloop
  endfacet
  facet normal -0.336887 -0.941545 0
    outer loop
      vertex 36.6114 63.2776 123
      vertex 40.3073 61.9552 180
      vertex 36.6114 63.2776 180
    endloop
  endfacet
  facet normal -0.336887 -0.941545 -0
    outer loop
      vertex 40.3073 61.9552 180
      vertex 36.6114 63.2776 123
      vertex 40.3073 61.9552 123
    endloop
  endfacet
  facet normal -0.941545 -0.336887 0
    outer loop
      vertex 63.2776 36.6114 123
      vertex 61.9552 40.3073 180
      vertex 61.9552 40.3073 123
    endloop
  endfacet
  facet normal -0.941545 -0.336887 0
    outer loop
      vertex 61.9552 40.3073 180
      vertex 63.2776 36.6114 123
      vertex 63.2776 36.6114 180
    endloop
  endfacet
  facet normal -0.595708 -0.803201 0
    outer loop
      vertex 47.2228 58.2588 123
      vertex 50.3757 55.9204 180
      vertex 47.2228 58.2588 180
    endloop
  endfacet
  facet normal -0.595708 -0.803201 -0
    outer loop
      vertex 50.3757 55.9204 180
      vertex 47.2228 58.2588 123
      vertex 50.3757 55.9204 123
    endloop
  endfacet
  facet normal 0.857734 0.514094 0
    outer loop
      vertex -8.25878 2.77719 180
      vertex -10.2768 6.14413 123
      vertex -10.2768 6.14413 180
    endloop
  endfacet
  facet normal 0.857734 0.514094 0
    outer loop
      vertex -10.2768 6.14413 123
      vertex -8.25878 2.77719 180
      vertex -8.25878 2.77719 123
    endloop
  endfacet
  facet normal -0.514095 -0.857733 0
    outer loop
      vertex 43.8559 60.2768 123
      vertex 47.2228 58.2588 180
      vertex 43.8559 60.2768 180
    endloop
  endfacet
  facet normal -0.514095 -0.857733 -0
    outer loop
      vertex 47.2228 58.2588 180
      vertex 43.8559 60.2768 123
      vertex 47.2228 58.2588 123
    endloop
  endfacet
  facet normal -0.941546 0.336883 0
    outer loop
      vertex 61.9552 9.69266 123
      vertex 63.2776 13.3886 180
      vertex 63.2776 13.3886 123
    endloop
  endfacet
  facet normal -0.941546 0.336883 0
    outer loop
      vertex 63.2776 13.3886 180
      vertex 61.9552 9.69266 123
      vertex 61.9552 9.69266 180
    endloop
  endfacet
  facet normal 0.857731 -0.514099 0
    outer loop
      vertex -10.2768 43.8559 180
      vertex -8.25878 47.2228 123
      vertex -8.25878 47.2228 180
    endloop
  endfacet
  facet normal 0.857731 -0.514099 0
    outer loop
      vertex -8.25878 47.2228 123
      vertex -10.2768 43.8559 180
      vertex -10.2768 43.8559 123
    endloop
  endfacet
  facet normal 0.970032 0.242979 0
    outer loop
      vertex -13.2776 13.3886 180
      vertex -14.2314 17.1964 123
      vertex -14.2314 17.1964 180
    endloop
  endfacet
  facet normal 0.970032 0.242979 0
    outer loop
      vertex -14.2314 17.1964 123
      vertex -13.2776 13.3886 180
      vertex -13.2776 13.3886 123
    endloop
  endfacet
  facet normal -0.0490647 -0.998796 0
    outer loop
      vertex 25 65 123
      vertex 28.9207 64.8074 180
      vertex 25 65 180
    endloop
  endfacet
  facet normal -0.0490647 -0.998796 -0
    outer loop
      vertex 28.9207 64.8074 180
      vertex 25 65 123
      vertex 28.9207 64.8074 123
    endloop
  endfacet
  facet normal -0.857733 -0.514095 0
    outer loop
      vertex 60.2768 43.8559 123
      vertex 58.2588 47.2228 180
      vertex 58.2588 47.2228 123
    endloop
  endfacet
  facet normal -0.857733 -0.514095 0
    outer loop
      vertex 58.2588 47.2228 180
      vertex 60.2768 43.8559 123
      vertex 60.2768 43.8559 180
    endloop
  endfacet
  facet normal 0.941546 0.336883 0
    outer loop
      vertex -11.9552 9.69266 180
      vertex -13.2776 13.3886 123
      vertex -13.2776 13.3886 180
    endloop
  endfacet
  facet normal 0.941546 0.336883 0
    outer loop
      vertex -13.2776 13.3886 123
      vertex -11.9552 9.69266 180
      vertex -11.9552 9.69266 123
    endloop
  endfacet
  facet normal 0.671553 -0.740957 0
    outer loop
      vertex -3.28427 53.2843 123
      vertex -0.375731 55.9204 180
      vertex -3.28427 53.2843 180
    endloop
  endfacet
  facet normal 0.671553 -0.740957 0
    outer loop
      vertex -0.375731 55.9204 180
      vertex -3.28427 53.2843 123
      vertex -0.375731 55.9204 123
    endloop
  endfacet
  facet normal -0.970032 0.242979 0
    outer loop
      vertex 63.2776 13.3886 123
      vertex 64.2314 17.1964 180
      vertex 64.2314 17.1964 123
    endloop
  endfacet
  facet normal -0.970032 0.242979 0
    outer loop
      vertex 64.2314 17.1964 180
      vertex 63.2776 13.3886 123
      vertex 63.2776 13.3886 180
    endloop
  endfacet
  facet normal 0.51409 -0.857736 0
    outer loop
      vertex 2.77719 58.2588 123
      vertex 6.14413 60.2768 180
      vertex 2.77719 58.2588 180
    endloop
  endfacet
  facet normal 0.51409 -0.857736 0
    outer loop
      vertex 6.14413 60.2768 180
      vertex 2.77719 58.2588 123
      vertex 6.14413 60.2768 123
    endloop
  endfacet
  facet normal 0.998796 0.0490647 0
    outer loop
      vertex -14.8074 21.0793 180
      vertex -15 25 123
      vertex -15 25 180
    endloop
  endfacet
  facet normal 0.998796 0.0490647 0
    outer loop
      vertex -15 25 123
      vertex -14.8074 21.0793 180
      vertex -14.8074 21.0793 123
    endloop
  endfacet
  facet normal 0.970032 -0.242979 0
    outer loop
      vertex -14.2314 32.8036 180
      vertex -13.2776 36.6114 123
      vertex -13.2776 36.6114 180
    endloop
  endfacet
  facet normal 0.970032 -0.242979 0
    outer loop
      vertex -13.2776 36.6114 123
      vertex -14.2314 32.8036 180
      vertex -14.2314 32.8036 123
    endloop
  endfacet
  facet normal -0.427563 0.903986 0
    outer loop
      vertex 43.8559 -10.2768 123
      vertex 40.3073 -11.9552 180
      vertex 43.8559 -10.2768 180
    endloop
  endfacet
  facet normal -0.427563 0.903986 0
    outer loop
      vertex 40.3073 -11.9552 180
      vertex 43.8559 -10.2768 123
      vertex 40.3073 -11.9552 123
    endloop
  endfacet
  facet normal 0.336883 0.941546 -0
    outer loop
      vertex 13.3886 -13.2776 123
      vertex 9.69266 -11.9552 180
      vertex 13.3886 -13.2776 180
    endloop
  endfacet
  facet normal 0.336883 0.941546 0
    outer loop
      vertex 9.69266 -11.9552 180
      vertex 13.3886 -13.2776 123
      vertex 9.69266 -11.9552 123
    endloop
  endfacet
  facet normal 0.336883 -0.941546 0
    outer loop
      vertex 9.69266 61.9552 123
      vertex 13.3886 63.2776 180
      vertex 9.69266 61.9552 180
    endloop
  endfacet
  facet normal 0.336883 -0.941546 0
    outer loop
      vertex 13.3886 63.2776 180
      vertex 9.69266 61.9552 123
      vertex 13.3886 63.2776 123
    endloop
  endfacet
  facet normal -0.514099 0.857731 0
    outer loop
      vertex 47.2228 -8.25878 123
      vertex 43.8559 -10.2768 180
      vertex 47.2228 -8.25878 180
    endloop
  endfacet
  facet normal -0.514099 0.857731 0
    outer loop
      vertex 43.8559 -10.2768 180
      vertex 47.2228 -8.25878 123
      vertex 43.8559 -10.2768 123
    endloop
  endfacet
  facet normal -0.146737 0.989176 0
    outer loop
      vertex 32.8036 -14.2314 123
      vertex 28.9207 -14.8074 180
      vertex 32.8036 -14.2314 180
    endloop
  endfacet
  facet normal -0.146737 0.989176 0
    outer loop
      vertex 28.9207 -14.8074 180
      vertex 32.8036 -14.2314 123
      vertex 28.9207 -14.8074 123
    endloop
  endfacet
  facet normal -0.740957 0.671553 0
    outer loop
      vertex 53.2843 -3.28427 123
      vertex 55.9204 -0.375731 180
      vertex 55.9204 -0.375731 123
    endloop
  endfacet
  facet normal -0.740957 0.671553 0
    outer loop
      vertex 55.9204 -0.375731 180
      vertex 53.2843 -3.28427 123
      vertex 53.2843 -3.28427 180
    endloop
  endfacet
  facet normal -0.803203 0.595705 0
    outer loop
      vertex 55.9204 -0.375731 123
      vertex 58.2588 2.77719 180
      vertex 58.2588 2.77719 123
    endloop
  endfacet
  facet normal -0.803203 0.595705 0
    outer loop
      vertex 58.2588 2.77719 180
      vertex 55.9204 -0.375731 123
      vertex 55.9204 -0.375731 180
    endloop
  endfacet
  facet normal 0.0490647 -0.998796 0
    outer loop
      vertex 21.0793 64.8074 123
      vertex 25 65 180
      vertex 21.0793 64.8074 180
    endloop
  endfacet
  facet normal 0.0490647 -0.998796 0
    outer loop
      vertex 25 65 180
      vertex 21.0793 64.8074 123
      vertex 25 65 123
    endloop
  endfacet
  facet normal 0.42757 -0.903982 0
    outer loop
      vertex 6.14413 60.2768 123
      vertex 9.69266 61.9552 180
      vertex 6.14413 60.2768 180
    endloop
  endfacet
  facet normal 0.42757 -0.903982 0
    outer loop
      vertex 9.69266 61.9552 180
      vertex 6.14413 60.2768 123
      vertex 9.69266 61.9552 123
    endloop
  endfacet
  facet normal 0.595705 -0.803203 0
    outer loop
      vertex -0.375731 55.9204 123
      vertex 2.77719 58.2588 180
      vertex -0.375731 55.9204 180
    endloop
  endfacet
  facet normal 0.595705 -0.803203 0
    outer loop
      vertex 2.77719 58.2588 180
      vertex -0.375731 55.9204 123
      vertex 2.77719 58.2588 123
    endloop
  endfacet
  facet normal 0.989176 -0.146737 0
    outer loop
      vertex -14.8074 28.9207 180
      vertex -14.2314 32.8036 123
      vertex -14.2314 32.8036 180
    endloop
  endfacet
  facet normal 0.989176 -0.146737 0
    outer loop
      vertex -14.2314 32.8036 123
      vertex -14.8074 28.9207 180
      vertex -14.8074 28.9207 123
    endloop
  endfacet
  facet normal 0.242979 0.970032 -0
    outer loop
      vertex 17.1964 -14.2314 123
      vertex 13.3886 -13.2776 180
      vertex 17.1964 -14.2314 180
    endloop
  endfacet
  facet normal 0.242979 0.970032 0
    outer loop
      vertex 13.3886 -13.2776 180
      vertex 17.1964 -14.2314 123
      vertex 13.3886 -13.2776 123
    endloop
  endfacet
  facet normal -0.970032 -0.242979 0
    outer loop
      vertex 64.2314 32.8036 123
      vertex 63.2776 36.6114 180
      vertex 63.2776 36.6114 123
    endloop
  endfacet
  facet normal -0.970032 -0.242979 0
    outer loop
      vertex 63.2776 36.6114 180
      vertex 64.2314 32.8036 123
      vertex 64.2314 32.8036 180
    endloop
  endfacet
  facet normal -0.803201 -0.595708 0
    outer loop
      vertex 58.2588 47.2228 123
      vertex 55.9204 50.3757 180
      vertex 55.9204 50.3757 123
    endloop
  endfacet
  facet normal -0.803201 -0.595708 0
    outer loop
      vertex 55.9204 50.3757 180
      vertex 58.2588 47.2228 123
      vertex 58.2588 47.2228 180
    endloop
  endfacet
  facet normal 0.803208 0.595698 0
    outer loop
      vertex -5.92042 -0.375731 180
      vertex -8.25878 2.77719 123
      vertex -8.25878 2.77719 180
    endloop
  endfacet
  facet normal 0.803208 0.595698 0
    outer loop
      vertex -8.25878 2.77719 123
      vertex -5.92042 -0.375731 180
      vertex -5.92042 -0.375731 123
    endloop
  endfacet
  facet normal 0.903982 0.42757 0
    outer loop
      vertex -10.2768 6.14413 180
      vertex -11.9552 9.69266 123
      vertex -11.9552 9.69266 180
    endloop
  endfacet
  facet normal 0.903982 0.42757 0
    outer loop
      vertex -11.9552 9.69266 123
      vertex -10.2768 6.14413 180
      vertex -10.2768 6.14413 123
    endloop
  endfacet
  facet normal -0.146737 -0.989176 0
    outer loop
      vertex 28.9207 64.8074 123
      vertex 32.8036 64.2314 180
      vertex 28.9207 64.8074 180
    endloop
  endfacet
  facet normal -0.146737 -0.989176 -0
    outer loop
      vertex 32.8036 64.2314 180
      vertex 28.9207 64.8074 123
      vertex 32.8036 64.2314 123
    endloop
  endfacet
  facet normal 0.42757 0.903982 -0
    outer loop
      vertex 9.69266 -11.9552 123
      vertex 6.14413 -10.2768 180
      vertex 9.69266 -11.9552 180
    endloop
  endfacet
  facet normal 0.42757 0.903982 0
    outer loop
      vertex 6.14413 -10.2768 180
      vertex 9.69266 -11.9552 123
      vertex 6.14413 -10.2768 123
    endloop
  endfacet
  facet normal -0.595701 0.803206 0
    outer loop
      vertex 50.3757 -5.92042 123
      vertex 47.2228 -8.25878 180
      vertex 50.3757 -5.92042 180
    endloop
  endfacet
  facet normal -0.595701 0.803206 0
    outer loop
      vertex 47.2228 -8.25878 180
      vertex 50.3757 -5.92042 123
      vertex 47.2228 -8.25878 123
    endloop
  endfacet
  facet normal -0.998796 0.0490647 0
    outer loop
      vertex 64.8074 21.0793 123
      vertex 65 25 180
      vertex 65 25 123
    endloop
  endfacet
  facet normal -0.998796 0.0490647 0
    outer loop
      vertex 65 25 180
      vertex 64.8074 21.0793 123
      vertex 64.8074 21.0793 180
    endloop
  endfacet
  facet normal 0.146737 -0.989176 0
    outer loop
      vertex 17.1964 64.2314 123
      vertex 21.0793 64.8074 180
      vertex 17.1964 64.2314 180
    endloop
  endfacet
  facet normal 0.146737 -0.989176 0
    outer loop
      vertex 21.0793 64.8074 180
      vertex 17.1964 64.2314 123
      vertex 21.0793 64.8074 123
    endloop
  endfacet
  facet normal 0.989176 0.146737 0
    outer loop
      vertex -14.2314 17.1964 180
      vertex -14.8074 21.0793 123
      vertex -14.8074 21.0793 180
    endloop
  endfacet
  facet normal 0.989176 0.146737 0
    outer loop
      vertex -14.8074 21.0793 123
      vertex -14.2314 17.1964 180
      vertex -14.2314 17.1964 123
    endloop
  endfacet
  facet normal -0.336887 0.941545 0
    outer loop
      vertex 40.3073 -11.9552 123
      vertex 36.6114 -13.2776 180
      vertex 40.3073 -11.9552 180
    endloop
  endfacet
  facet normal -0.336887 0.941545 0
    outer loop
      vertex 36.6114 -13.2776 180
      vertex 40.3073 -11.9552 123
      vertex 36.6114 -13.2776 123
    endloop
  endfacet
  facet normal -0.242979 0.970032 0
    outer loop
      vertex 36.6114 -13.2776 123
      vertex 32.8036 -14.2314 180
      vertex 36.6114 -13.2776 180
    endloop
  endfacet
  facet normal -0.242979 0.970032 0
    outer loop
      vertex 32.8036 -14.2314 180
      vertex 36.6114 -13.2776 123
      vertex 32.8036 -14.2314 123
    endloop
  endfacet
  facet normal 0.740951 0.67156 0
    outer loop
      vertex -3.28427 -3.28427 180
      vertex -5.92042 -0.375731 123
      vertex -5.92042 -0.375731 180
    endloop
  endfacet
  facet normal 0.740951 0.67156 0
    outer loop
      vertex -5.92042 -0.375731 123
      vertex -3.28427 -3.28427 180
      vertex -3.28427 -3.28427 123
    endloop
  endfacet
  facet normal 0.903986 -0.427563 0
    outer loop
      vertex -11.9552 40.3073 180
      vertex -10.2768 43.8559 123
      vertex -10.2768 43.8559 180
    endloop
  endfacet
  facet normal 0.903986 -0.427563 0
    outer loop
      vertex -10.2768 43.8559 123
      vertex -11.9552 40.3073 180
      vertex -11.9552 40.3073 123
    endloop
  endfacet
  facet normal 0.595698 0.803208 -0
    outer loop
      vertex 2.77719 -8.25878 123
      vertex -0.375731 -5.92042 180
      vertex 2.77719 -8.25878 180
    endloop
  endfacet
  facet normal 0.595698 0.803208 0
    outer loop
      vertex -0.375731 -5.92042 180
      vertex 2.77719 -8.25878 123
      vertex -0.375731 -5.92042 123
    endloop
  endfacet
  facet normal -0.903982 0.42757 0
    outer loop
      vertex 60.2768 6.14413 123
      vertex 61.9552 9.69266 180
      vertex 61.9552 9.69266 123
    endloop
  endfacet
  facet normal -0.903982 0.42757 0
    outer loop
      vertex 61.9552 9.69266 180
      vertex 60.2768 6.14413 123
      vertex 60.2768 6.14413 180
    endloop
  endfacet
  facet normal -0.857736 0.51409 0
    outer loop
      vertex 58.2588 2.77719 123
      vertex 60.2768 6.14413 180
      vertex 60.2768 6.14413 123
    endloop
  endfacet
  facet normal -0.857736 0.51409 0
    outer loop
      vertex 60.2768 6.14413 180
      vertex 58.2588 2.77719 123
      vertex 58.2588 2.77719 180
    endloop
  endfacet
  facet normal 0.0490647 0.998796 -0
    outer loop
      vertex 25 -15 123
      vertex 21.0793 -14.8074 180
      vertex 25 -15 180
    endloop
  endfacet
  facet normal 0.0490647 0.998796 0
    outer loop
      vertex 21.0793 -14.8074 180
      vertex 25 -15 123
      vertex 21.0793 -14.8074 123
    endloop
  endfacet
  facet normal 0.998796 -0.0490647 0
    outer loop
      vertex -15 25 180
      vertex -14.8074 28.9207 123
      vertex -14.8074 28.9207 180
    endloop
  endfacet
  facet normal 0.998796 -0.0490647 0
    outer loop
      vertex -14.8074 28.9207 123
      vertex -15 25 180
      vertex -15 25 123
    endloop
  endfacet
  facet normal -0.671552 0.740958 0
    outer loop
      vertex 53.2843 -3.28427 123
      vertex 50.3757 -5.92042 180
      vertex 53.2843 -3.28427 180
    endloop
  endfacet
  facet normal -0.671552 0.740958 0
    outer loop
      vertex 50.3757 -5.92042 180
      vertex 53.2843 -3.28427 123
      vertex 50.3757 -5.92042 123
    endloop
  endfacet
  facet normal 1 -0 0
    outer loop
      vertex 32.5 17.5 120
      vertex 32.5 32.5 20
      vertex 32.5 32.5 120
    endloop
  endfacet
  facet normal 1 0 0
    outer loop
      vertex 32.5 32.5 20
      vertex 32.5 17.5 120
      vertex 32.5 17.5 20
    endloop
  endfacet
  facet normal -1 0 0
    outer loop
      vertex 17.5 17.5 20
      vertex 17.5 32.5 120
      vertex 17.5 32.5 20
    endloop
  endfacet
  facet normal -1 -0 0
    outer loop
      vertex 17.5 32.5 120
      vertex 17.5 17.5 20
      vertex 17.5 17.5 120
    endloop
  endfacet
  facet normal 0 1 -0
    outer loop
      vertex 32.5 32.5 20
      vertex 17.5 32.5 120
      vertex 32.5 32.5 120
    endloop
  endfacet
  facet normal 0 1 0
    outer loop
      vertex 17.5 32.5 120
      vertex 32.5 32.5 20
      vertex 17.5 32.5 20
    endloop
  endfacet
  facet normal 0 -1 0
    outer loop
      vertex 17.5 17.5 20
      vertex 32.5 17.5 120
      vertex 17.5 17.5 120
    endloop
  endfacet
  facet normal 0 -1 -0
    outer loop
      vertex 32.5 17.5 120
      vertex 17.5 17.5 20
      vertex 32.5 17.5 20
    endloop
  endfacet
  facet normal 0 0 1
    outer loop
      vertex 64.8074 28.9207 123
      vertex 64.8074 21.0793 123
      vertex 65 25 123
    endloop
  endfacet
  facet normal 0 0 1
    outer loop
      vertex 64.2314 32.8036 123
      vertex 64.8074 21.0793 123
      vertex 64.8074 28.9207 123
    endloop
  endfacet
  facet normal 0 0 1
    outer loop
      vertex 64.2314 32.8036 123
      vertex 64.2314 17.1964 123
      vertex 64.8074 21.0793 123
    endloop
  endfacet
  facet normal 0 0 1
    outer loop
      vertex 63.2776 36.6114 123
      vertex 64.2314 17.1964 123
      vertex 64.2314 32.8036 123
    endloop
  endfacet
  facet normal 0 0 1
    outer loop
      vertex 63.2776 36.6114 123
      vertex 63.2776 13.3886 123
      vertex 64.2314 17.1964 123
    endloop
  endfacet
  facet normal 0 0 1
    outer loop
      vertex 61.9552 40.3073 123
      vertex 63.2776 13.3886 123
      vertex 63.2776 36.6114 123
    endloop
  endfacet
  facet normal 0 0 1
    outer loop
      vertex 61.9552 40.3073 123
      vertex 61.9552 9.69266 123
      vertex 63.2776 13.3886 123
    endloop
  endfacet
  facet normal 0 0 1
    outer loop
      vertex 60.2768 43.8559 123
      vertex 61.9552 9.69266 123
      vertex 61.9552 40.3073 123
    endloop
  endfacet
  facet normal 0 0 1
    outer loop
      vertex 60.2768 43.8559 123
      vertex 60.2768 6.14413 123
      vertex 61.9552 9.69266 123
    endloop
  endfacet
  facet normal 0 0 1
    outer loop
      vertex 58.2588 47.2228 123
      vertex 60.2768 6.14413 123
      vertex 60.2768 43.8559 123
    endloop
  endfacet
  facet normal 0 0 1
    outer loop
      vertex 58.2588 47.2228 123
      vertex 58.2588 2.77719 123
      vertex 60.2768 6.14413 123
    endloop
  endfacet
  facet normal 0 0 1
    outer loop
      vertex 55.9204 50.3757 123
      vertex 58.2588 2.77719 123
      vertex 58.2588 47.2228 123
    endloop
  endfacet
  facet normal 0 0 1
    outer loop
      vertex 55.9204 50.3757 123
      vertex 55.9204 -0.375731 123
      vertex 58.2588 2.77719 123
    endloop
  endfacet
  facet normal 0 0 1
    outer loop
      vertex 53.2843 53.2843 123
      vertex 55.9204 -0.375731 123
      vertex 55.9204 50.3757 123
    endloop
  endfacet
  facet normal 0 0 1
    outer loop
      vertex 53.2843 53.2843 123
      vertex 53.2843 -3.28427 123
      vertex 55.9204 -0.375731 123
    endloop
  endfacet
  facet normal 0 0 1
    outer loop
      vertex 50.3757 55.9204 123
      vertex 53.2843 -3.28427 123
      vertex 53.2843 53.2843 123
    endloop
  endfacet
  facet normal 0 0 1
    outer loop
      vertex 50.3757 55.9204 123
      vertex 50.3757 -5.92042 123
      vertex 53.2843 -3.28427 123
    endloop
  endfacet
  facet normal 0 0 1
    outer loop
      vertex 47.2228 58.2588 123
      vertex 50.3757 -5.92042 123
      vertex 50.3757 55.9204 123
    endloop
  endfacet
  facet normal 0 0 1
    outer loop
      vertex 47.2228 58.2588 123
      vertex 47.2228 -8.25878 123
      vertex 50.3757 -5.92042 123
    endloop
  endfacet
  facet normal 0 0 1
    outer loop
      vertex 43.8559 60.2768 123
      vertex 47.2228 -8.25878 123
      vertex 47.2228 58.2588 123
    endloop
  endfacet
  facet normal 0 0 1
    outer loop
      vertex 43.8559 60.2768 123
      vertex 43.8559 -10.2768 123
      vertex 47.2228 -8.25878 123
    endloop
  endfacet
  facet normal 0 0 1
    outer loop
      vertex 40.3073 61.9552 123
      vertex 43.8559 -10.2768 123
      vertex 43.8559 60.2768 123
    endloop
  endfacet
  facet normal 0 0 1
    outer loop
      vertex 40.3073 61.9552 123
      vertex 40.3073 -11.9552 123
      vertex 43.8559 -10.2768 123
    endloop
  endfacet
  facet normal 0 0 1
    outer loop
      vertex 36.6114 63.2776 123
      vertex 40.3073 -11.9552 123
      vertex 40.3073 61.9552 123
    endloop
  endfacet
  facet normal 0 0 1
    outer loop
      vertex 36.6114 63.2776 123
      vertex 36.6114 -13.2776 123
      vertex 40.3073 -11.9552 123
    endloop
  endfacet
  facet normal 0 0 1
    outer loop
      vertex 32.8036 64.2314 123
      vertex 36.6114 -13.2776 123
      vertex 36.6114 63.2776 123
    endloop
  endfacet
  facet normal 0 0 1
    outer loop
      vertex 32.8036 64.2314 123
      vertex 32.8036 -14.2314 123
      vertex 36.6114 -13.2776 123
    endloop
  endfacet
  facet normal 0 0 1
    outer loop
      vertex 28.9207 64.8074 123
      vertex 32.8036 -14.2314 123
      vertex 32.8036 64.2314 123
    endloop
  endfacet
  facet normal 0 0 1
    outer loop
      vertex 28.9207 64.8074 123
      vertex 28.9207 -14.8074 123
      vertex 32.8036 -14.2314 123
    endloop
  endfacet
  facet normal 0 0 1
    outer loop
      vertex 25 65 123
      vertex 28.9207 -14.8074 123
      vertex 28.9207 64.8074 123
    endloop
  endfacet
  facet normal 0 0 1
    outer loop
      vertex 25 65 123
      vertex 25 -15 123
      vertex 28.9207 -14.8074 123
    endloop
  endfacet
  facet normal -0 0 1
    outer loop
      vertex 21.0793 64.8074 123
      vertex 25 -15 123
      vertex 25 65 123
    endloop
  endfacet
  facet normal 0 0 1
    outer loop
      vertex 21.0793 64.8074 123
      vertex 21.0793 -14.8074 123
      vertex 25 -15 123
    endloop
  endfacet
  facet normal -0 0 1
    outer loop
      vertex 17.1964 64.2314 123
      vertex 21.0793 -14.8074 123
      vertex 21.0793 64.8074 123
    endloop
  endfacet
  facet normal 0 0 1
    outer loop
      vertex 17.1964 64.2314 123
      vertex 17.1964 -14.2314 123
      vertex 21.0793 -14.8074 123
    endloop
  endfacet
  facet normal -0 0 1
    outer loop
      vertex 13.3886 63.2776 123
      vertex 17.1964 -14.2314 123
      vertex 17.1964 64.2314 123
    endloop
  endfacet
  facet normal 0 0 1
    outer loop
      vertex 13.3886 63.2776 123
      vertex 13.3886 -13.2776 123
      vertex 17.1964 -14.2314 123
    endloop
  endfacet
  facet normal -0 0 1
    outer loop
      vertex 9.69266 61.9552 123
      vertex 13.3886 -13.2776 123
      vertex 13.3886 63.2776 123
    endloop
  endfacet
  facet normal 0 0 1
    outer loop
      vertex 9.69266 61.9552 123
      vertex 9.69266 -11.9552 123
      vertex 13.3886 -13.2776 123
    endloop
  endfacet
  facet normal -0 0 1
    outer loop
      vertex 6.14413 60.2768 123
      vertex 9.69266 -11.9552 123
      vertex 9.69266 61.9552 123
    endloop
  endfacet
  facet normal 0 0 1
    outer loop
      vertex 6.14413 60.2768 123
      vertex 6.14413 -10.2768 123
      vertex 9.69266 -11.9552 123
    endloop
  endfacet
  facet normal -0 0 1
    outer loop
      vertex 2.77719 58.2588 123
      vertex 6.14413 -10.2768 123
      vertex 6.14413 60.2768 123
    endloop
  endfacet
  facet normal 0 0 1
    outer loop
      vertex 2.77719 58.2588 123
      vertex 2.77719 -8.25878 123
      vertex 6.14413 -10.2768 123
    endloop
  endfacet
  facet normal -0 0 1
    outer loop
      vertex -0.375731 55.9204 123
      vertex 2.77719 -8.25878 123
      vertex 2.77719 58.2588 123
    endloop
  endfacet
  facet normal 0 0 1
    outer loop
      vertex -0.375731 55.9204 123
      vertex -0.375731 -5.92042 123
      vertex 2.77719 -8.25878 123
    endloop
  endfacet
  facet normal -0 0 1
    outer loop
      vertex -3.28427 53.2843 123
      vertex -0.375731 -5.92042 123
      vertex -0.375731 55.9204 123
    endloop
  endfacet
  facet normal 0 0 1
    outer loop
      vertex -3.28427 53.2843 123
      vertex -3.28427 -3.28427 123
      vertex -0.375731 -5.92042 123
    endloop
  endfacet
  facet normal -0 0 1
    outer loop
      vertex -5.92042 50.3757 123
      vertex -3.28427 -3.28427 123
      vertex -3.28427 53.2843 123
    endloop
  endfacet
  facet normal 0 0 1
    outer loop
      vertex -5.92042 50.3757 123
      vertex -5.92042 -0.375731 123
      vertex -3.28427 -3.28427 123
    endloop
  endfacet
  facet normal -0 0 1
    outer loop
      vertex -8.25878 47.2228 123
      vertex -5.92042 -0.375731 123
      vertex -5.92042 50.3757 123
    endloop
  endfacet
  facet normal 0 0 1
    outer loop
      vertex -8.25878 47.2228 123
      vertex -8.25878 2.77719 123
      vertex -5.92042 -0.375731 123
    endloop
  endfacet
  facet normal -0 0 1
    outer loop
      vertex -10.2768 43.8559 123
      vertex -8.25878 2.77719 123
      vertex -8.25878 47.2228 123
    endloop
  endfacet
  facet normal 0 0 1
    outer loop
      vertex -10.2768 43.8559 123
      vertex -10.2768 6.14413 123
      vertex -8.25878 2.77719 123
    endloop
  endfacet
  facet normal -0 0 1
    outer loop
      vertex -11.9552 40.3073 123
      vertex -10.2768 6.14413 123
      vertex -10.2768 43.8559 123
    endloop
  endfacet
  facet normal 0 0 1
    outer loop
      vertex -11.9552 40.3073 123
      vertex -11.9552 9.69266 123
      vertex -10.2768 6.14413 123
    endloop
  endfacet
  facet normal -0 0 1
    outer loop
      vertex -13.2776 36.6114 123
      vertex -11.9552 9.69266 123
      vertex -11.9552 40.3073 123
    endloop
  endfacet
  facet normal 0 0 1
    outer loop
      vertex -13.2776 36.6114 123
      vertex -13.2776 13.3886 123
      vertex -11.9552 9.69266 123
    endloop
  endfacet
  facet normal -0 0 1
    outer loop
      vertex -14.2314 32.8036 123
      vertex -13.2776 13.3886 123
      vertex -13.2776 36.6114 123
    endloop
  endfacet
  facet normal 0 0 1
    outer loop
      vertex -14.2314 32.8036 123
      vertex -14.2314 17.1964 123
      vertex -13.2776 13.3886 123
    endloop
  endfacet
  facet normal -0 0 1
    outer loop
      vertex -14.8074 28.9207 123
      vertex -14.2314 17.1964 123
      vertex -14.2314 32.8036 123
    endloop
  endfacet
  facet normal 0 0 1
    outer loop
      vertex -14.8074 28.9207 123
      vertex -14.8074 21.0793 123
      vertex -14.2314 17.1964 123
    endloop
  endfacet
  facet normal 0 -0 1
    outer loop
      vertex -14.8074 21.0793 123
      vertex -14.8074 28.9207 123
      vertex -15 25 123
    endloop
  endfacet
endsolid OpenSCAD_Model
